<?xml version="1.0" encoding="UTF-8"?>
<svg width="216px" height="465px" viewBox="0 0 216 465" version="1.1" xmlns="http://www.w3.org/2000/svg" xmlns:xlink="http://www.w3.org/1999/xlink">
    <!-- Generator: Sketch 61 (89581) - https://sketch.com -->
    <title>Group</title>
    <desc>Created with Sketch.</desc>
    <defs>
        <linearGradient x1="8.81632712%" y1="50%" x2="82.4021895%" y2="50%" id="linearGradient-1">
            <stop stop-color="#5F5F5F" offset="0%"></stop>
            <stop stop-color="#C0C0C0" offset="8.30247471%"></stop>
            <stop stop-color="#353535" offset="100%"></stop>
        </linearGradient>
        <linearGradient x1="8.81632712%" y1="50%" x2="82.4021895%" y2="50%" id="linearGradient-2">
            <stop stop-color="#5F5F5F" offset="0%"></stop>
            <stop stop-color="#C0C0C0" offset="8.30247471%"></stop>
            <stop stop-color="#353535" offset="100%"></stop>
        </linearGradient>
        <linearGradient x1="50%" y1="0%" x2="50%" y2="50%" id="linearGradient-3">
            <stop stop-color="#D0D5E1" offset="0%"></stop>
            <stop stop-color="#586782" stop-opacity="0" offset="100%"></stop>
        </linearGradient>
        <linearGradient x1="50%" y1="0%" x2="50%" y2="122.939588%" id="linearGradient-4">
            <stop stop-color="#D0D5E1" offset="0%"></stop>
            <stop stop-color="#586782" stop-opacity="0" offset="18.2427877%"></stop>
            <stop stop-color="#CCD1DE" offset="100%"></stop>
        </linearGradient>
    </defs>
    <g id="Mockup" stroke="none" stroke-width="1" fill="none" fill-rule="evenodd">
        <g id="Samsung-S9-Mockup-by-Ryan-Sael" transform="translate(-292.000000, -66.000000)">
            <g id="Group" transform="translate(292.000000, 66.948100)">
                <g id="device-buttons" transform="translate(0.000000, 79.051900)">
                    <path d="M2.82352941,0.407737181 L1.41176471,0.407737181 C0.632068589,0.407737181 0,1.03589281 0,1.823359 L0,64.5843782 C0,65.3662045 0.62663269,66 1.41176471,66 L2.82352941,66 L2.82352941,0.407737181 Z" id="button-3" fill="url(#linearGradient-1)"></path>
                    <path d="M2.82352941,92 L1.41176471,92 C0.632068589,92 0,92.6392121 0,93.4162898 L0,122.58371 C0,123.365905 0.62663269,124 1.41176471,124 L2.82352941,124 L2.82352941,92 Z" id="button-2" fill="url(#linearGradient-2)"></path>
                    <path d="M216,65.4209395 L214.588235,65.4209395 C213.808539,65.4209395 213.176471,66.0601516 213.176471,66.8372293 L213.176471,96.0046497 C213.176471,96.786845 213.803103,97.4209395 214.588235,97.4209395 L216,97.4209395 L216,65.4209395 Z" id="button-1" fill="url(#linearGradient-2)" transform="translate(214.588235, 81.420940) scale(-1, 1) translate(-214.588235, -81.420940) "></path>
                </g>
                <path d="M185.947049,0.0520413327 C202.371048,0.0520413327 213.599958,17.248835 213.599958,27.8343378 L213.599958,27.8343378 L213.599958,436.363914 C213.599958,448.021715 202.371048,463.76966 185.947049,463.76966 L185.947049,463.76966 L30.3353609,463.76966 C13.9113619,463.76966 2.68231059,447.809994 2.68231059,436.363914 L2.68231059,436.363914 L2.68231059,28.4576454 C2.68231059,16.8253923 13.9113619,0.0520413327 30.3353609,0.0520413327 L30.3353609,0.0520413327 Z M192.349271,18.2255384 L23.8074353,18.2255384 L23.450499,18.2300942 C13.3820802,18.4874965 7.12927059,29.5879305 7.12927059,35.1146572 L7.12927059,35.1146572 L7.12927059,432.836549 L7.13186294,433.033892 C7.27865055,438.689356 13.6495748,449.725526 23.8074353,449.725526 L23.8074353,449.725526 L192.349271,449.725526 L192.706207,449.72097 C202.774626,449.463568 209.027435,438.363136 209.027435,432.836549 L209.027435,432.836549 L209.027435,35.1146572 L209.024843,34.9173087 C208.878055,29.2617082 202.507131,18.2255384 192.349271,18.2255384 L192.349271,18.2255384 Z" id="Combined-Shape" fill="#586C82"></path>
                <path d="M26,0.409773919 C27.8355792,0.0393692085 29.5022458,-0.0799220652 31,0.0519000984 L31,7.0519001 L26,7.0519001 C26,3.8724688 26,1.65842674 26,0.409773919 Z" id="antenna?" fill="#91A0C1" opacity="0.400000006"></path>
                <path d="M186,0.0519000984 C188.183172,0.0519000984 189.849839,0.239297888 191,0.614093467 C191,1.7827244 191,3.92865995 191,7.0519001 L186,7.0519001 L186,0.0519000984 Z" id="antenna?" fill="#91A0C1" opacity="0.400000006"></path>
                <path d="M186.070482,4.30028819 C202.164665,4.30028819 212.188235,19.2938649 212.188235,28.0504056 L212.188235,28.0504056 L212.188235,437.347223 C212.188235,446.103764 202.164665,459.097341 186.070482,459.097341 L186.070482,459.097341 L30.211871,459.097341 C14.1176879,459.097341 4.09411765,446.103764 4.09411765,437.347223 L4.09411765,437.347223 L4.09411765,28.0504056 C4.09411765,19.2938649 14.1176879,4.30028819 30.211871,4.30028819 L30.211871,4.30028819 Z M192.349271,18.2255384 L23.8074353,18.2255384 L23.450499,18.2300942 C13.3820802,18.4874965 7.12927059,29.5879305 7.12927059,35.1146572 L7.12927059,35.1146572 L7.12927059,432.836549 L7.13186294,433.033892 C7.27865055,438.689356 13.6495748,449.725526 23.8074353,449.725526 L23.8074353,449.725526 L192.349271,449.725526 L192.706207,449.72097 C202.774626,449.463568 209.027435,438.363136 209.027435,432.836549 L209.027435,432.836549 L209.027435,35.1146572 L209.024843,34.9173087 C208.878055,29.2617082 202.507131,18.2255384 192.349271,18.2255384 L192.349271,18.2255384 Z" id="Combined-Shape" fill="#1D1D1D"></path>
                <path d="M30.7296065,0.0519000984 C72.8039998,0.0519000984 145.600631,0.0519000984 186.25538,0.0519000984 C195.874356,0.0519000984 203.993171,5.38523343 210.611826,16.0519001 L191.843665,4.0519001 L26.7296065,4.0519001 L6,16.801482 C12.5786755,5.63509407 20.8218777,0.0519000984 30.7296065,0.0519000984 Z" id="light-illumination-top" fill="url(#linearGradient-3)" opacity="0.400000006"></path>
                <g id="sensors-&amp;-cam" transform="translate(33.600000, 8.491876)">
                    <path d="M61.8352941,2.98891889 C61.8352941,2.43648003 62.2763629,1.98863985 62.8314654,1.98863985 L86.2508875,1.98863985 C86.8010577,1.98863985 87.2470588,2.43737383 87.2470588,2.98891889 L87.2470588,3.94292023 C87.2470588,4.49535908 86.8059901,4.94319926 86.2508875,4.94319926 L62.8314654,4.94319926 C62.2812952,4.94319926 61.8352941,4.49446528 61.8352941,3.94292023 L61.8352941,2.98891889 Z" id="shape" fill="#2C2B2E"></path>
                    <ellipse id="shape" stroke="#14181C" stroke-width="0.705954573" fill="#040307" cx="130.258824" cy="3.10715382" rx="2.61180082" ry="2.61272552"></ellipse>
                    <ellipse id="shape" stroke="#14181C" stroke-width="0.705954573" fill="#040307" cx="34.2117647" cy="3.10715382" rx="2.1882714" ry="2.18902273"></ellipse>
                    <ellipse id="shape" stroke="#14181C" stroke-width="0.705954573" fill="#040307" cx="28.2117647" cy="3.10715382" rx="2.1882714" ry="2.18902273"></ellipse>
                    <ellipse id="shape" stroke="#14181C" stroke-width="0.705954573" fill="#040307" cx="1.34117647" cy="3.17777095" rx="1.69415376" ry="1.6947028"></ellipse>
                    <ellipse id="shape" stroke="#14181C" fill="#020518" cx="116.717647" cy="3.03653669" rx="3.53529412" ry="3.53653669"></ellipse>
                    <ellipse id="shape" stroke="#14181C" stroke-width="1.41190915" fill="#040307" cx="15.8823529" cy="3.03653669" rx="3.74124869" ry="3.74249126"></ellipse>
                </g>
                <rect id="antenna?" fill="#91A0C1" opacity="0.400000006" x="30" y="456.0519" width="5" height="7.76522223"></rect>
                <rect id="antenna?" fill="#91A0C1" opacity="0.400000006" x="182" y="456.0519" width="5" height="7.76522223"></rect>
                <path d="M30.7296065,447.0519 C72.8039998,447.0519 145.600631,447.0519 186.25538,447.0519 C195.874356,447.0519 203.993171,452.385233 210.611826,463.0519 L191.843665,451.0519 L26.7296065,451.0519 L6,463.801482 C12.5786755,452.635094 20.8218777,447.0519 30.7296065,447.0519 Z" id="light-illumination-bottom" fill="url(#linearGradient-4)" opacity="0.400000006" transform="translate(108.305913, 455.426691) scale(1, -1) translate(-108.305913, -455.426691) "></path>
                <g id="display-buttons" opacity="0.5" transform="translate(48.000000, 437.051900)" fill="#FFFFFF">
                    <g id="back" transform="translate(114.000000, 0.000000)">
                        <path d="M7.70656417,4.65922959 L0.565011227,4.65922959 C0.335740639,4.65922959 0.130752404,4.5222744 0.0429406391,4.31048803 C-0.0443064197,4.09841928 0.00369358032,3.85698281 0.166046521,3.69489564 L3.73639946,0.123895028 C3.90185829,-0.0412983425 4.17009358,-0.0412983425 4.3355524,0.123895028 C4.50072887,0.28937078 4.50072887,0.557633517 4.3355524,0.723109269 L1.24661123,3.8120841 L7.70656417,3.8120841 C7.9403524,3.8120841 8.13009358,4.00156231 8.13009358,4.23565684 C8.13009358,4.46975138 7.9403524,4.65922959 7.70656417,4.65922959" id="path"></path>
                        <path d="M2.12582838,5 L1.05119308,5 C1.00573426,5 0.982863672,5.05506446 1.01505191,5.08725599 L3.70529254,7.68055915 C3.78802195,7.76329703 3.89644548,7.80452478 4.00486901,7.80452478 C4.1237396,7.80452478 4.2431749,7.75454319 4.32816313,7.65429764 C4.47442195,7.48232711 4.44195137,7.21942963 4.28242195,7.05988389 L2.12582838,5 Z" id="path"></path>
                    </g>
                    <g id="home" transform="translate(57.000000, 0.000000)">
                        <path d="M0.423529412,6.7771639 C0.189741176,6.7771639 0,6.5876857 0,6.35359116 L0,1.27071823 C0,0.570128913 0.570070588,0 1.27058824,0 L7.76470588,0 C7.99849412,0 8.18823529,0.189478207 8.18823529,0.423572744 C8.18823529,0.657667281 7.99849412,0.847145488 7.76470588,0.847145488 L1.27058824,0.847145488 C1.03708235,0.847145488 0.847058824,1.03718846 0.847058824,1.27071823 L0.847058824,6.35359116 C0.847058824,6.5876857 0.657317647,6.7771639 0.423529412,6.7771639" id="path"></path>
                        <path d="M6.91764706,7.7771639 L0.423529412,7.7771639 C0.189741176,7.7771639 0,7.5876857 0,7.35359116 C0,7.11949662 0.189741176,6.93001842 0.423529412,6.93001842 L6.91764706,6.93001842 C7.15115294,6.93001842 7.34117647,6.73997545 7.34117647,6.50644567 L7.34117647,1.42357274 C7.34117647,1.18947821 7.53091765,1 7.76470588,1 C7.99849412,1 8.18823529,1.18947821 8.18823529,1.42357274 L8.18823529,6.50644567 C8.18823529,7.20703499 7.61816471,7.7771639 6.91764706,7.7771639" id="path"></path>
                    </g>
                    <g id="switch">
                        <path d="M0.423529412,3.23572744 C0.189741176,3.23572744 0,3.04624923 0,2.8121547 C0,2.57806016 0.189741176,2.38858195 0.423529412,2.38858195 L5.78823529,2.38858195 C6.02174118,2.38858195 6.21176471,2.19853898 6.21176471,1.96500921 L6.21176471,0.423572744 C6.21176471,0.189478207 6.40150588,0 6.63529412,0 C6.86908235,0 7.05882353,0.189478207 7.05882353,0.423572744 L7.05882353,1.96500921 C7.05882353,2.66559853 6.48875294,3.23572744 5.78823529,3.23572744 L0.423529412,3.23572744 Z" id="path"></path>
                        <path d="M0,7.40884845 L0,5.27071823 C0,4.57012891 0.570070588,4 1.27058824,4 L6.63529412,4 C6.86908235,4 7.05882353,4.18947821 7.05882353,4.42357274 C7.05882353,4.65766728 6.86908235,4.84714549 6.63529412,4.84714549 L1.27058824,4.84714549 C1.03708235,4.84714549 0.847058824,5.03718846 0.847058824,5.27071823 L0.847058824,7.40884845 C0.847058824,7.64294299 0.657317647,7.83242119 0.423529412,7.83242119 C0.189741176,7.83242119 0,7.64294299 0,7.40884845 Z" id="path"></path>
                    </g>
                </g>
            </g>
        </g>
    </g>
</svg>