<?xml version="1.0" encoding="utf-8"?>
<!-- Generator: Adobe Illustrator 18.0.0, SVG Export Plug-In . SVG Version: 6.00 Build 0)  -->
<!DOCTYPE svg PUBLIC "-//W3C//DTD SVG 1.1//EN" "http://www.w3.org/Graphics/SVG/1.1/DTD/svg11.dtd">
<svg version="1.1" id="Layer_1" xmlns="http://www.w3.org/2000/svg" xmlns:xlink="http://www.w3.org/1999/xlink" x="0px" y="0px"
	 viewBox="-27.9 -83.6 277.6 44.3" enable-background="new -27.9 -83.6 277.6 44.3" xml:space="preserve">
<title>Apple Badge</title>
<desc>Created with Sketch.</desc>
<g>
	<path id="Path_30_" opacity="0.1" fill="#FFFFFF" enable-background="new    " d="M-5.7-39.3c12.2,0,22.1-9.9,22.1-22.1
		S6.5-83.6-5.7-83.6s-22.1,9.9-22.1,22.1S-18-39.3-5.7-39.3z"/>
	<g>
		<path fill="#FFFFFF" d="M34.3-79.7h7.3v1.5H36v4.5h5.1v1.4H36v6.1h-1.7V-79.7z"/>
		<path fill="#FFFFFF" d="M43.4-72.9c0-1.1,0-2.1-0.1-3h1.5l0.1,1.9H45c0.4-1.3,1.5-2.1,2.7-2.1c0.2,0,0.3,0,0.5,0.1v1.7
			c-0.2,0-0.4-0.1-0.6-0.1c-1.2,0-2.1,0.9-2.4,2.3c0,0.2-0.1,0.5-0.1,0.8v5.2h-1.7V-72.9z"/>
		<path fill="#FFFFFF" d="M50.7-70.8c0,2.4,1.6,3.4,3.3,3.4c1.3,0,2-0.2,2.7-0.5l0.3,1.3c-0.6,0.3-1.7,0.6-3.2,0.6
			c-3,0-4.8-2-4.8-4.9c0-2.9,1.7-5.2,4.5-5.2c3.2,0,4,2.8,4,4.6c0,0.4,0,0.6-0.1,0.8H50.7z M55.9-72c0-1.1-0.5-2.9-2.4-2.9
			c-1.8,0-2.6,1.6-2.7,2.9H55.9z"/>
		<path fill="#FFFFFF" d="M60.8-70.8c0,2.4,1.6,3.4,3.3,3.4c1.3,0,2-0.2,2.7-0.5l0.3,1.3c-0.6,0.3-1.7,0.6-3.2,0.6
			c-3,0-4.8-2-4.8-4.9c0-2.9,1.7-5.2,4.5-5.2c3.2,0,4,2.8,4,4.6c0,0.4,0,0.6-0.1,0.8H60.8z M65.9-72c0-1.1-0.5-2.9-2.4-2.9
			c-1.8,0-2.6,1.6-2.7,2.9H65.9z"/>
		<path fill="#FFFFFF" d="M74.1-79.5c1.1-0.2,2.3-0.3,3.7-0.3c2.5,0,4.3,0.6,5.5,1.7c1.2,1.1,1.9,2.7,1.9,4.8c0,2.2-0.7,4-1.9,5.2
			c-1.3,1.3-3.3,1.9-6,1.9c-1.2,0-2.3-0.1-3.2-0.2V-79.5z M75.8-67.6c0.4,0.1,1.1,0.1,1.8,0.1c3.7,0,5.7-2.1,5.7-5.7
			c0-3.2-1.8-5.2-5.5-5.2c-0.9,0-1.6,0.1-2,0.2V-67.6z"/>
		<path fill="#FFFFFF" d="M96.2-71.2c0,3.6-2.5,5.1-4.8,5.1c-2.6,0-4.6-1.9-4.6-5c0-3.2,2.1-5.1,4.8-5.1
			C94.3-76.1,96.2-74.1,96.2-71.2z M88.5-71.1c0,2.1,1.2,3.7,2.9,3.7c1.7,0,2.9-1.6,2.9-3.8c0-1.6-0.8-3.7-2.9-3.7
			C89.4-74.8,88.5-72.9,88.5-71.1z"/>
		<path fill="#FFFFFF" d="M99-75.9l1.3,4.9c0.3,1.1,0.5,2.1,0.7,3.1h0.1c0.2-1,0.5-2,0.9-3.1l1.6-4.9h1.5l1.5,4.8
			c0.4,1.2,0.6,2.2,0.9,3.2h0.1c0.2-1,0.4-2,0.7-3.1l1.4-4.9h1.7l-3.1,9.7h-1.6l-1.5-4.6c-0.3-1.1-0.6-2-0.9-3.2h0
			c-0.2,1.2-0.5,2.2-0.9,3.2l-1.6,4.6h-1.6l-2.9-9.7H99z"/>
		<path fill="#FFFFFF" d="M113-73.3c0-1,0-1.8-0.1-2.6h1.6l0.1,1.6h0c0.5-0.9,1.6-1.8,3.2-1.8c1.3,0,3.4,0.8,3.4,4.1v5.8h-1.8v-5.6
			c0-1.6-0.6-2.9-2.2-2.9c-1.2,0-2.1,0.8-2.4,1.8c-0.1,0.2-0.1,0.5-0.1,0.8v5.8H113V-73.3z"/>
		<path fill="#FFFFFF" d="M124.1-80.4h1.8v14.2h-1.8V-80.4z"/>
		<path fill="#FFFFFF" d="M137.6-71.2c0,3.6-2.5,5.1-4.8,5.1c-2.6,0-4.6-1.9-4.6-5c0-3.2,2.1-5.1,4.8-5.1
			C135.7-76.1,137.6-74.1,137.6-71.2z M129.9-71.1c0,2.1,1.2,3.7,2.9,3.7c1.7,0,2.9-1.6,2.9-3.8c0-1.6-0.8-3.7-2.9-3.7
			S129.9-72.9,129.9-71.1z"/>
		<path fill="#FFFFFF" d="M145.2-66.2l-0.1-1.2H145c-0.5,0.8-1.6,1.4-3,1.4c-2,0-3-1.4-3-2.8c0-2.3,2.1-3.6,5.8-3.6v-0.2
			c0-0.8-0.2-2.2-2.2-2.2c-0.9,0-1.8,0.3-2.5,0.7l-0.4-1.2c0.8-0.5,2-0.9,3.2-0.9c3,0,3.7,2,3.7,4v3.6c0,0.8,0,1.7,0.2,2.3H145.2z
			 M144.9-71.2c-1.9,0-4.1,0.3-4.1,2.2c0,1.1,0.8,1.7,1.7,1.7c1.3,0,2.1-0.8,2.3-1.6c0.1-0.2,0.1-0.4,0.1-0.6V-71.2z"/>
		<path fill="#FFFFFF" d="M157.8-80.4v11.7c0,0.9,0,1.8,0.1,2.5h-1.6l-0.1-1.7h0c-0.5,1.1-1.7,1.9-3.3,1.9c-2.3,0-4.1-2-4.1-4.9
			c0-3.2,2-5.2,4.3-5.2c1.5,0,2.5,0.7,2.9,1.5h0v-5.8H157.8z M156-72c0-0.2,0-0.5-0.1-0.7c-0.3-1.1-1.2-2-2.5-2
			c-1.8,0-2.9,1.6-2.9,3.7c0,2,1,3.6,2.9,3.6c1.2,0,2.3-0.8,2.6-2.1c0.1-0.2,0.1-0.5,0.1-0.8V-72z"/>
	</g>
	<g>
		<path fill="#FFFFFF" d="M37.8-48h-1.3l-0.6,3.4h-1.7l0.6-3.4H33v-1.5h2.1l0.4-2.2h-1.8v-1.5h2.1l0.6-3.5h1.6l-0.6,3.5h1.3l0.6-3.5
			h1.7l-0.6,3.5h1.9v1.5h-2.2l-0.4,2.2h1.9v1.5h-2.1l-0.6,3.4h-1.7L37.8-48z M36.7-49.5h1.3l0.4-2.2h-1.3L36.7-49.5z"/>
		<path fill="#FFFFFF" d="M43.5-44.6v-12.1h3.9c1.1,0,2,0.2,2.9,0.7c0.9,0.5,1.5,1.2,2,2c0.5,0.9,0.7,1.9,0.7,3v0.6
			c0,1.1-0.2,2.1-0.7,3c-0.5,0.9-1.1,1.6-2,2.1c-0.8,0.5-1.8,0.7-2.8,0.8H43.5z M46.4-54.4v7.6h1c0.8,0,1.5-0.3,1.9-0.9
			c0.4-0.6,0.7-1.5,0.7-2.7v-0.5c0-1.2-0.2-2-0.7-2.6s-1.1-0.9-2-0.9H46.4z"/>
		<path fill="#FFFFFF" d="M54-49.2c0-0.9,0.2-1.7,0.5-2.4c0.3-0.7,0.8-1.2,1.5-1.6s1.4-0.6,2.3-0.6c1.3,0,2.4,0.4,3.2,1.2
			c0.8,0.8,1.2,2,1.2,3.4v0.1c0,1.4-0.4,2.5-1.2,3.3c-0.8,0.8-1.8,1.2-3.2,1.2c-1.3,0-2.3-0.4-3.1-1.1c-0.8-0.8-1.2-1.8-1.3-3.1
			L54-49.2z M56.8-49c0,0.8,0.1,1.4,0.4,1.8s0.6,0.6,1.2,0.6c1,0,1.5-0.8,1.5-2.3v-0.3c0-1.6-0.5-2.4-1.5-2.4
			c-0.9,0-1.4,0.7-1.5,2.1L56.8-49z"/>
		<path fill="#FFFFFF" d="M71.7-48.3l0.9-5.3h2.7l-2.1,9h-2.4l-1.5-5.3l-1.5,5.3h-2.4l-2.1-9H66l0.9,5.4l1.4-5.4h2L71.7-48.3z"/>
		<path fill="#FFFFFF" d="M78.9-53.6l0.1,1.1c0.6-0.8,1.5-1.2,2.6-1.2c0.9,0,1.6,0.3,2.1,0.8c0.5,0.6,0.7,1.4,0.7,2.5v5.8h-2.8v-5.7
			c0-0.5-0.1-0.8-0.3-1c-0.2-0.2-0.5-0.3-1-0.3c-0.5,0-1,0.2-1.2,0.6v6.3h-2.8v-9H78.9z"/>
		<path fill="#FFFFFF" d="M88.8-44.6H86v-12.8h2.8V-44.6z"/>
		<path fill="#FFFFFF" d="M90.2-49.2c0-0.9,0.2-1.7,0.5-2.4c0.3-0.7,0.8-1.2,1.5-1.6s1.4-0.6,2.3-0.6c1.3,0,2.4,0.4,3.2,1.2
			c0.8,0.8,1.2,2,1.2,3.4v0.1c0,1.4-0.4,2.5-1.2,3.3c-0.8,0.8-1.8,1.2-3.2,1.2c-1.3,0-2.3-0.4-3.1-1.1c-0.8-0.8-1.2-1.8-1.3-3.1
			L90.2-49.2z M93-49c0,0.8,0.1,1.4,0.4,1.8s0.6,0.6,1.2,0.6c1,0,1.5-0.8,1.5-2.3v-0.3c0-1.6-0.5-2.4-1.5-2.4
			c-0.9,0-1.4,0.7-1.5,2.1L93-49z"/>
		<path fill="#FFFFFF" d="M105.2-44.6c-0.1-0.2-0.2-0.5-0.3-0.8c-0.5,0.6-1.2,1-2.2,1c-0.8,0-1.6-0.3-2.2-0.8
			c-0.6-0.5-0.9-1.2-0.9-1.9c0-1,0.4-1.7,1.1-2.2s1.8-0.7,3.1-0.7h0.9v-0.5c0-0.8-0.4-1.2-1.1-1.2c-0.7,0-1,0.3-1,1h-2.8
			c0-0.9,0.4-1.6,1.1-2.1c0.7-0.5,1.7-0.8,2.8-0.8s2.1,0.3,2.7,0.8s1,1.3,1,2.3v4c0,0.8,0.1,1.5,0.4,1.9v0.1H105.2z M103.4-46.4
			c0.3,0,0.6-0.1,0.9-0.2c0.2-0.1,0.4-0.3,0.5-0.5v-1.4h-0.8c-1,0-1.5,0.4-1.5,1.3c0,0.3,0.1,0.5,0.3,0.6
			C102.9-46.5,103.1-46.4,103.4-46.4z"/>
		<path fill="#FFFFFF" d="M108.8-49.1c0-1.4,0.3-2.5,0.9-3.4s1.5-1.2,2.6-1.2c0.8,0,1.5,0.3,2,0.9v-4.5h2.8v12.8h-2.5l-0.1-1
			c-0.6,0.8-1.3,1.1-2.2,1.1c-1.1,0-1.9-0.4-2.5-1.2C109.1-46.5,108.8-47.6,108.8-49.1z M111.6-49c0,1.6,0.5,2.4,1.4,2.4
			c0.6,0,1.1-0.3,1.3-0.8v-3.4c-0.3-0.5-0.7-0.8-1.3-0.8c-0.9,0-1.3,0.7-1.4,2.1L111.6-49z"/>
		<path fill="#FFFFFF" d="M125.6-52.6c0.6-0.8,1.4-1.1,2.3-1.1c1,0,1.7,0.3,2.2,0.9c0.5,0.6,0.8,1.5,0.8,2.6v5.7h-2.8v-5.6
			c0-0.5-0.1-0.8-0.3-1.1c-0.2-0.2-0.5-0.3-1-0.3c-0.6,0-1,0.2-1.2,0.5v6.4h-2.8v-12.8h2.8V-52.6z"/>
		<path fill="#FFFFFF" d="M132.5-55.9c0-0.4,0.1-0.7,0.4-1c0.3-0.3,0.7-0.4,1.1-0.4c0.5,0,0.8,0.1,1.1,0.4c0.3,0.3,0.4,0.6,0.4,1
			s-0.1,0.7-0.4,1c-0.3,0.3-0.7,0.4-1.1,0.4c-0.5,0-0.8-0.1-1.1-0.4C132.6-55.2,132.5-55.5,132.5-55.9z M135.5-44.6h-2.8v-9h2.8
			V-44.6z"/>
		<path fill="#FFFFFF" d="M136.9-49.1c0-0.9,0.1-1.7,0.4-2.4s0.7-1.2,1.3-1.6c0.6-0.4,1.2-0.6,2-0.6c0.9,0,1.7,0.3,2.2,0.9l0.1-0.8
			h2.5v8.6c0,0.8-0.2,1.5-0.6,2.1c-0.4,0.6-0.9,1-1.6,1.3c-0.7,0.3-1.5,0.5-2.4,0.5c-0.7,0-1.3-0.1-1.9-0.4s-1.1-0.6-1.4-1l1.2-1.6
			c0.5,0.6,1.2,0.9,2.1,0.9c1.2,0,1.9-0.6,1.9-1.9v-0.3c-0.5,0.6-1.2,0.9-2,0.9c-1.1,0-2-0.4-2.7-1.3
			C137.2-46.5,136.9-47.6,136.9-49.1L136.9-49.1z M139.7-49c0,0.7,0.1,1.3,0.4,1.7c0.3,0.4,0.7,0.6,1.2,0.6c0.6,0,1-0.2,1.3-0.6V-51
			c-0.3-0.4-0.7-0.6-1.3-0.6c-0.5,0-0.9,0.2-1.2,0.7C139.8-50.5,139.7-49.8,139.7-49z"/>
		<path fill="#FFFFFF" d="M149.7-52.6c0.6-0.8,1.4-1.1,2.3-1.1c1,0,1.7,0.3,2.2,0.9s0.8,1.5,0.8,2.6v5.7h-2.8v-5.6
			c0-0.5-0.1-0.8-0.3-1.1c-0.2-0.2-0.5-0.3-1-0.3c-0.6,0-1,0.2-1.2,0.5v6.4h-2.8v-12.8h2.8V-52.6z"/>
		<path fill="#FFFFFF" d="M160.4-49.2c0-1.4,0.3-2.5,0.9-3.4s1.5-1.2,2.6-1.2c0.9,0,1.7,0.4,2.2,1.1l0.2-1h2.4v12.4H166v-4.2
			c-0.5,0.6-1.2,0.9-2,0.9c-1.1,0-1.9-0.4-2.5-1.2C160.8-46.5,160.4-47.6,160.4-49.2z M163.2-49c0,1.6,0.5,2.4,1.4,2.4
			c0.6,0,1.1-0.2,1.3-0.7v-3.6c-0.2-0.5-0.7-0.7-1.3-0.7c-0.9,0-1.3,0.7-1.4,2.1L163.2-49z"/>
		<path fill="#FFFFFF" d="M175.7-45.6c-0.6,0.8-1.4,1.1-2.4,1.1c-1,0-1.7-0.3-2.2-0.9c-0.5-0.6-0.8-1.4-0.8-2.5v-5.8h2.8v5.8
			c0,0.8,0.4,1.2,1.1,1.2c0.6,0,1.1-0.2,1.4-0.7v-6.3h2.8v9h-2.6L175.7-45.6z"/>
		<path fill="#FFFFFF" d="M185-44.6c-0.1-0.2-0.2-0.5-0.3-0.8c-0.5,0.6-1.2,1-2.2,1c-0.8,0-1.6-0.3-2.2-0.8
			c-0.6-0.5-0.9-1.2-0.9-1.9c0-1,0.4-1.7,1.1-2.2c0.7-0.5,1.8-0.7,3.1-0.7h0.9v-0.5c0-0.8-0.4-1.2-1.1-1.2c-0.7,0-1,0.3-1,1h-2.8
			c0-0.9,0.4-1.6,1.1-2.1c0.7-0.5,1.7-0.8,2.8-0.8c1.1,0,2.1,0.3,2.7,0.8s1,1.3,1,2.3v4c0,0.8,0.1,1.5,0.4,1.9v0.1H185z M183.2-46.4
			c0.3,0,0.6-0.1,0.9-0.2s0.4-0.3,0.5-0.5v-1.4h-0.8c-1,0-1.5,0.4-1.5,1.3c0,0.3,0.1,0.5,0.3,0.6C182.8-46.5,183-46.4,183.2-46.4z"
			/>
		<path fill="#FFFFFF" d="M191.9-44.6h-2.8v-12.8h2.8V-44.6z"/>
		<path fill="#FFFFFF" d="M193.6-55.9c0-0.4,0.1-0.7,0.4-1s0.7-0.4,1.1-0.4c0.5,0,0.8,0.1,1.1,0.4s0.4,0.6,0.4,1s-0.1,0.7-0.4,1
			s-0.7,0.4-1.1,0.4c-0.5,0-0.8-0.1-1.1-0.4S193.6-55.5,193.6-55.9z M196.6-44.6h-2.8v-9h2.8V-44.6z"/>
		<path fill="#FFFFFF" d="M201.6-55.8v2.2h1.5v1.9h-1.5v4.1c0,0.3,0.1,0.6,0.2,0.7c0.1,0.1,0.4,0.2,0.7,0.2c0.3,0,0.5,0,0.7,0v2
			c-0.5,0.2-1,0.2-1.6,0.2c-1,0-1.7-0.2-2.1-0.7c-0.5-0.5-0.7-1.1-0.7-2.1v-4.5h-1.1v-1.9h1.1v-2.2H201.6z"/>
		<path fill="#FFFFFF" d="M207.7-48.5l1.5-5.1h3l-3.7,10.5l-0.2,0.4c-0.5,1.2-1.4,1.7-2.8,1.7c-0.4,0-0.8-0.1-1.2-0.2v-2h0.4
			c0.4,0,0.7-0.1,0.9-0.2c0.2-0.1,0.4-0.3,0.5-0.6l0.2-0.6l-3.1-9.1h3L207.7-48.5z"/>
		<path fill="#FFFFFF" d="M219.8-53.6l0.1,1.1c0.6-0.8,1.5-1.2,2.6-1.2c1.1,0,1.9,0.5,2.3,1.4c0.6-0.9,1.5-1.4,2.6-1.4
			c1.8,0,2.8,1.1,2.8,3.3v5.8h-2.8v-5.7c0-0.5-0.1-0.8-0.2-1s-0.4-0.3-0.8-0.3c-0.6,0-1,0.2-1.2,0.7l0,0.1v6.1h-2.8v-5.7
			c0-0.5-0.1-0.8-0.2-1c-0.1-0.2-0.4-0.3-0.9-0.3c-0.5,0-0.9,0.2-1.2,0.7v6.3h-2.8v-9H219.8z"/>
		<path fill="#FFFFFF" d="M240.2-49c0,1.4-0.3,2.5-0.9,3.3c-0.6,0.8-1.5,1.2-2.5,1.2c-0.8,0-1.5-0.3-2-0.9v4.2h-2.8v-12.4h2.6
			l0.1,0.8c0.5-0.7,1.2-1,2.1-1c1.1,0,2,0.4,2.6,1.2c0.6,0.8,0.9,1.9,0.9,3.4V-49z M237.4-49.2c0-1.6-0.5-2.4-1.4-2.4
			c-0.7,0-1.1,0.2-1.3,0.7v3.5c0.2,0.5,0.7,0.7,1.3,0.7c0.9,0,1.4-0.8,1.4-2.3V-49.2z"/>
		<path fill="#FFFFFF" d="M243.9-51.8h1.3c1,0,1.6-0.5,1.6-1.5c0-0.4-0.1-0.7-0.4-1c-0.2-0.3-0.6-0.4-1.1-0.4c-0.4,0-0.7,0.1-1,0.3
			c-0.3,0.2-0.4,0.5-0.4,0.8h-2.8c0-0.6,0.2-1.2,0.5-1.7s0.8-0.9,1.5-1.2c0.6-0.3,1.3-0.4,2.1-0.4c1.3,0,2.4,0.3,3.2,0.9
			c0.8,0.6,1.2,1.5,1.2,2.5c0,0.5-0.2,1-0.5,1.5c-0.3,0.5-0.8,0.8-1.4,1.1c0.6,0.2,1.1,0.6,1.5,1.1c0.4,0.5,0.5,1.1,0.5,1.8
			c0,1.1-0.4,1.9-1.2,2.6s-1.9,1-3.3,1c-0.8,0-1.5-0.2-2.2-0.5c-0.7-0.3-1.2-0.7-1.5-1.3c-0.3-0.5-0.5-1.1-0.5-1.8h2.8
			c0,0.4,0.1,0.7,0.4,1s0.7,0.4,1.1,0.4c0.5,0,0.9-0.1,1.2-0.4c0.3-0.3,0.4-0.6,0.4-1c0-0.6-0.2-1-0.5-1.3c-0.3-0.3-0.7-0.4-1.3-0.4
			h-1.4V-51.8z"/>
	</g>
	<g>
		<path fill="#1ED688" d="M6.2-60c-0.6,0-1.1,0.5-1.1,1.1v5.3h-21.7v-5.3c0-0.6-0.5-1.1-1.1-1.1c-0.6,0-1.1,0.5-1.1,1.1v6.4
			c0,0.6,0.5,1.1,1.1,1.1h24c0.6,0,1.1-0.5,1.1-1.1v-6.4C7.4-59.5,6.9-60,6.2-60z"/>
		<path fill="#1ED688" d="M-6.5-58.1c0.2,0.2,0.5,0.3,0.8,0.3c0.3,0,0.6-0.1,0.8-0.3l5.6-5.5C0.8-63.8,1-64.1,1-64.4
			c0-0.3-0.1-0.6-0.3-0.8c-0.4-0.4-1.2-0.4-1.6,0l-3.7,3.6v-14.9c0-0.6-0.5-1.1-1.1-1.1s-1.1,0.5-1.1,1.1v14.9l-3.7-3.6
			c-0.4-0.4-1.2-0.4-1.6,0c-0.2,0.2-0.3,0.5-0.3,0.8c0,0.3,0.1,0.6,0.3,0.8L-6.5-58.1z"/>
	</g>
</g>
</svg>
