<?xml version="1.0" encoding="UTF-8"?>
<svg width="208px" height="43px" viewBox="0 0 208 43" version="1.1" xmlns="http://www.w3.org/2000/svg" xmlns:xlink="http://www.w3.org/1999/xlink">
    <!-- Generator: Sketch 58 (84663) - https://sketch.com -->
    <title>Apple Badge</title>
    <desc>Created with Sketch.</desc>
    <g id="Website" stroke="none" stroke-width="1" fill="none" fill-rule="evenodd">
        <g id="Badges" transform="translate(-721.000000, -884.000000)" fill="#FFFFFF" fill-rule="nonzero">
            <g id="Apple-Badge" transform="translate(715.000000, 882.000000)">
                <path d="M46.1210938,42 L46.1210938,36.453125 L51.8535156,36.453125 L51.8535156,34.1191406 L46.1210938,34.1191406 L46.1210938,30.3398438 L52.4003906,30.3398438 L52.4003906,27.9082031 L43.171875,27.9082031 L43.171875,42 L46.1210938,42 Z M58.5917969,33.4160156 C59.8613281,33.4160156 60.7304688,34.3339844 60.7890625,35.671875 L56.3457031,35.671875 C56.4433594,34.3632812 57.3417969,33.4160156 58.5917969,33.4160156 Z M60.828125,38.796875 C60.5644531,39.5976562 59.7636719,40.1152344 58.71875,40.1152344 C57.2636719,40.1152344 56.3164062,39.0898438 56.3164062,37.5957031 L56.3164062,37.4199219 L63.5332031,37.4199219 L63.5332031,36.5507812 C63.5332031,33.3671875 61.609375,31.3066406 58.5625,31.3066406 C55.4667969,31.3066406 53.5136719,33.4746094 53.5136719,36.8144531 C53.5136719,40.1640625 55.4472656,42.2246094 58.6699219,42.2246094 C61.2578125,42.2246094 63.1328125,40.8476562 63.4453125,38.796875 L60.828125,38.796875 Z M69.0410156,40.1054688 C68.0742188,40.1054688 67.4296875,39.6171875 67.4296875,38.8359375 C67.4296875,38.09375 68.0351562,37.6152344 69.0996094,37.5371094 L71.3066406,37.4003906 L71.3066406,38.1621094 C71.3066406,39.2949219 70.28125,40.1054688 69.0410156,40.1054688 Z M68.1035156,42.1660156 C69.4121094,42.1660156 70.7109375,41.5117188 71.296875,40.3984375 L71.3554688,40.3984375 L71.3554688,42 L74.109375,42 L74.109375,34.8027344 C74.109375,32.6933594 72.3613281,31.3066406 69.6757812,31.3066406 C66.9023438,31.3066406 65.1738281,32.703125 65.0664062,34.734375 L67.6738281,34.734375 C67.8105469,33.9628906 68.484375,33.4355469 69.5488281,33.4355469 C70.6230469,33.4355469 71.3066406,34.0019531 71.3066406,34.9785156 L71.3066406,35.671875 L68.6699219,35.828125 C66.0625,35.984375 64.5976562,37.0878906 64.5976562,38.9921875 C64.5976562,40.8769531 66.1113281,42.1660156 68.1035156,42.1660156 Z M76.7070312,29.1191406 L76.7070312,31.53125 L75.2324219,31.53125 L75.2324219,33.6796875 L76.7070312,33.6796875 L76.7070312,39.1777344 C76.7070312,41.21875 77.6640625,42.0390625 80.125,42.0390625 C80.7011719,42.0390625 81.1894531,41.9902344 81.4824219,41.921875 L81.4824219,39.8222656 C81.3066406,39.8515625 81.0429688,39.8710938 80.7890625,39.8710938 C79.9492188,39.8710938 79.5585938,39.4902344 79.5585938,38.6894531 L79.5585938,33.6796875 L81.4921875,33.6796875 L81.4921875,31.53125 L79.5585938,31.53125 L79.5585938,29.1191406 L76.7070312,29.1191406 Z M92.7226562,31.53125 L89.8710938,31.53125 L89.8710938,37.5273438 C89.8710938,38.9140625 89.0800781,39.8222656 87.8105469,39.8222656 C86.5507812,39.8222656 85.8574219,39.0800781 85.8574219,37.6835938 L85.8574219,31.53125 L83.0058594,31.53125 L83.0058594,38.2792969 C83.0058594,40.7207031 84.5097656,42.1953125 86.7753906,42.1953125 C88.3574219,42.1953125 89.3925781,41.4335938 89.9101562,40.1152344 L89.96875,40.1152344 L89.96875,42 L92.7226562,42 L92.7226562,31.53125 Z M94.578125,42 L97.4296875,42 L97.4296875,36.1503906 C97.4296875,34.6757812 98.25,33.8164062 99.65625,33.8164062 C100.066406,33.8164062 100.457031,33.8847656 100.691406,33.9824219 L100.691406,31.4726562 C100.496094,31.4140625 100.212891,31.3652344 99.8808594,31.3652344 C98.6503906,31.3652344 97.7617188,32.0878906 97.390625,33.4160156 L97.3320312,33.4160156 L97.3320312,31.53125 L94.578125,31.53125 L94.578125,42 Z M106.550781,33.4160156 C107.820312,33.4160156 108.689453,34.3339844 108.748047,35.671875 L104.304688,35.671875 C104.402344,34.3632812 105.300781,33.4160156 106.550781,33.4160156 Z M108.787109,38.796875 C108.523438,39.5976562 107.722656,40.1152344 106.677734,40.1152344 C105.222656,40.1152344 104.275391,39.0898438 104.275391,37.5957031 L104.275391,37.4199219 L111.492188,37.4199219 L111.492188,36.5507812 C111.492188,33.3671875 109.568359,31.3066406 106.521484,31.3066406 C103.425781,31.3066406 101.472656,33.4746094 101.472656,36.8144531 C101.472656,40.1640625 103.40625,42.2246094 106.628906,42.2246094 C109.216797,42.2246094 111.091797,40.8476562 111.404297,38.796875 L108.787109,38.796875 Z M116.84375,42.1660156 C118.386719,42.1660156 119.597656,41.3554688 120.105469,40.203125 L120.154297,40.203125 L120.154297,42 L122.966797,42 L122.966797,27.9082031 L120.115234,27.9082031 L120.115234,33.328125 L120.056641,33.328125 C119.548828,32.1660156 118.376953,31.3652344 116.863281,31.3652344 C114.236328,31.3652344 112.576172,33.4257812 112.576172,36.7460938 C112.576172,40.0957031 114.226562,42.1660156 116.84375,42.1660156 Z M117.810547,33.6503906 C119.226562,33.6503906 120.134766,34.8613281 120.134766,36.765625 C120.134766,38.6796875 119.226562,39.8710938 117.810547,39.8710938 C116.375,39.8710938 115.496094,38.6894531 115.496094,36.765625 C115.496094,34.8515625 116.375,33.6503906 117.810547,33.6503906 Z M128.728516,32.1953125 L131.462891,32.1953125 C131.462891,30.8378906 132.527344,29.890625 133.933594,29.890625 C135.203125,29.890625 136.072266,30.75 136.072266,31.8828125 C136.072266,32.859375 135.671875,33.5332031 133.884766,35.2519531 L128.894531,39.9785156 L128.894531,42 L139.138672,42 L139.138672,39.65625 L132.751953,39.65625 L132.751953,39.5976562 L135.710938,36.765625 C138.09375,34.4902344 138.943359,33.4257812 138.943359,31.6972656 C138.943359,29.3535156 136.951172,27.5957031 133.933594,27.5957031 C130.876953,27.5957031 128.728516,29.4804688 128.728516,32.1953125 Z M146.521484,42.3125 C150.095703,42.3125 152.263672,39.4707031 152.263672,34.9199219 C152.263672,30.3691406 150.076172,27.5859375 146.521484,27.5859375 C142.966797,27.5859375 140.769531,30.3789062 140.769531,34.9296875 C140.769531,39.4902344 142.947266,42.3125 146.521484,42.3125 Z M146.521484,39.9492188 C144.783203,39.9492188 143.767578,38.1621094 143.767578,34.9296875 C143.767578,31.7265625 144.802734,29.9492188 146.521484,29.9492188 C148.25,29.9492188 149.265625,31.7167969 149.265625,34.9296875 C149.265625,38.1621094 148.259766,39.9492188 146.521484,39.9492188 Z M157.595703,42 L160.515625,42 L160.515625,27.9082031 L157.585938,27.9082031 L153.943359,30.4375 L153.943359,33.0546875 L157.537109,30.6132812 L157.595703,30.6132812 L157.595703,42 Z M168.875,42.3125 C172.537109,42.3125 174.753906,39.5 174.753906,34.8320312 C174.753906,29.6855469 171.980469,27.5859375 168.875,27.5859375 C165.730469,27.5859375 163.445312,29.6660156 163.445312,32.5859375 C163.445312,35.3300781 165.505859,37.1855469 168.123047,37.1855469 C169.96875,37.1855469 171.365234,36.2675781 171.873047,34.9003906 L171.931641,34.9003906 C171.951172,37.9277344 171.003906,39.9785156 168.884766,39.9785156 C167.703125,39.9785156 166.833984,39.4414062 166.521484,38.4355469 L163.611328,38.4355469 C163.982422,40.7207031 166.111328,42.3125 168.875,42.3125 Z M168.884766,34.9980469 C167.410156,34.9980469 166.316406,33.9433594 166.316406,32.46875 C166.316406,31.0429688 167.458984,29.9394531 168.914062,29.9394531 C170.359375,29.9394531 171.501953,31.0625 171.501953,32.5175781 C171.501953,33.9628906 170.369141,34.9980469 168.884766,34.9980469 Z" id="Featured2019"></path>
                <path d="M96.421875,17 L97.8984375,17 L93.7421875,5.7265625 L92.3515625,5.7265625 L88.1953125,17 L89.671875,17 L90.8046875,13.7734375 L95.2890625,13.7734375 L96.421875,17 Z M93.0234375,7.4375 L93.0703125,7.4375 L94.875,12.578125 L91.21875,12.578125 L93.0234375,7.4375 Z M102.921875,8.734375 C101.742188,8.734375 100.796875,9.3359375 100.296875,10.25 L100.265625,10.25 L100.265625,8.875 L98.9765625,8.875 L98.9765625,19.7109375 L100.335938,19.7109375 L100.335938,15.6796875 L100.367188,15.6796875 C100.851562,16.5703125 101.789062,17.140625 102.953125,17.140625 C105,17.140625 106.398438,15.484375 106.398438,12.9375 C106.398438,10.390625 104.992188,8.734375 102.921875,8.734375 Z M102.65625,15.9453125 C101.265625,15.9453125 100.328125,14.75 100.328125,12.9375 C100.328125,11.1328125 101.265625,9.9296875 102.65625,9.9296875 C104.101562,9.9296875 105.007812,11.1015625 105.007812,12.9375 C105.007812,14.78125 104.101562,15.9453125 102.65625,15.9453125 Z M111.710938,8.734375 C110.53125,8.734375 109.585938,9.3359375 109.085938,10.25 L109.054688,10.25 L109.054688,8.875 L107.765625,8.875 L107.765625,19.7109375 L109.125,19.7109375 L109.125,15.6796875 L109.15625,15.6796875 C109.640625,16.5703125 110.578125,17.140625 111.742188,17.140625 C113.789062,17.140625 115.1875,15.484375 115.1875,12.9375 C115.1875,10.390625 113.78125,8.734375 111.710938,8.734375 Z M111.445312,15.9453125 C110.054688,15.9453125 109.117188,14.75 109.117188,12.9375 C109.117188,11.1328125 110.054688,9.9296875 111.445312,9.9296875 C112.890625,9.9296875 113.796875,11.1015625 113.796875,12.9375 C113.796875,14.78125 112.890625,15.9453125 111.445312,15.9453125 Z M123.101562,8.734375 C125.296875,8.734375 126.648438,10.328125 126.648438,12.7890625 L126.648438,13.3046875 L120.820312,13.3046875 L120.820312,13.3828125 C120.820312,14.9375 121.734375,15.9609375 123.195312,15.9609375 C124.226562,15.9609375 124.984375,15.4375 125.210938,14.671875 L126.546875,14.671875 C126.3125,16.09375 124.9375,17.140625 123.164062,17.140625 C120.835938,17.140625 119.421875,15.5234375 119.421875,12.96875 C119.421875,10.4453125 120.859375,8.734375 123.101562,8.734375 Z M117.984375,5.7265625 L117.984375,17 L116.625,17 L116.625,5.7265625 L117.984375,5.7265625 Z M123.078125,9.9140625 C121.860054,9.9140625 120.992232,10.8075526 120.843863,12.0680728 L120.828125,12.2421875 L125.242188,12.2421875 C125.210938,10.8828125 124.359375,9.9140625 123.078125,9.9140625 Z" id="Apple"></path>
                <g id="Right-Side" opacity="0.5" transform="translate(202.000000, 23.500000) rotate(-15.000000) translate(-202.000000, -23.500000) translate(189.000000, 3.000000)">
                    <path d="M19.1016396,6.6144 C20.3958396,1.4436 15.6498396,-5.5067062e-14 15.6498396,-5.5067062e-14 C15.6498396,-5.5067062e-14 14.1204396,4.7184 19.1016396,6.6144 Z" id="Path"></path>
                    <path d="M24.2892396,4.6506 C24.2892396,4.6506 19.5426396,6.0936 20.8350396,11.2638 C25.8168396,9.3702 24.2892396,4.6506 24.2892396,4.6506 Z" id="Path"></path>
                    <path d="M21.0480396,17.5836 C26.2608396,16.4706 25.4688396,11.5728 25.4688396,11.5728 C25.4688396,11.5728 20.5584396,12.2766 21.0480396,17.5836 Z" id="Path"></path>
                    <path d="M19.2438396,23.283 C24.5550396,23.7336 25.2204396,18.8172 25.2204396,18.8172 C25.2204396,18.8172 20.3178396,18.0624 19.2438396,23.283 Z" id="Path"></path>
                    <path d="M15.9432396,28.8294 C20.9412396,30.6834 22.8966396,26.124 22.8966396,26.124 C22.8966396,26.124 18.3738396,24.0864 15.9432396,28.8294 Z" id="Path"></path>
                    <path d="M10.9728396,32.5602 C15.0690396,35.9718 18.4302396,32.3226 18.4302396,32.3226 C18.4302396,32.3226 14.8434396,28.8966 10.9728396,32.5602 Z" id="Path"></path>
                    <path d="M5.57223961,35.5416 C8.91963961,39.6894 12.9312396,36.7704 12.9312396,36.7704 C12.9312396,36.7704 10.0854396,32.7072 5.57223961,35.5416 Z" id="Path"></path>
                    <path d="M0.61503961,36.5874 C2.73063961,41.4798 7.37703961,39.7404 7.37703961,39.7404 C7.37703961,39.7404 5.72223961,35.064 0.61503961,36.5874 Z" id="Path"></path>
                    <path d="M19.5702396,11.3214 C19.4514396,5.9928 14.4924396,5.8548 14.4924396,5.8548 C14.4924396,5.8548 14.2650396,10.8102 19.5702396,11.3214 Z" id="Path"></path>
                    <path d="M15.4362396,11.2176 C15.4362396,11.2176 14.3364396,16.0536 19.4670396,17.496 C20.2926396,12.2304 15.4362396,11.2176 15.4362396,11.2176 Z" id="Path"></path>
                    <path d="M17.7408396,22.9434 C19.6164396,17.9544 15.0666396,15.978 15.0666396,15.978 C15.0666396,15.978 13.0086396,20.4906 17.7408396,22.9434 Z" id="Path"></path>
                    <path d="M14.5794396,27.9852 C17.5728396,23.5752 13.6140396,20.5872 13.6140396,20.5872 C13.6140396,20.5872 10.5546396,24.4908 14.5794396,27.9852 Z" id="Path"></path>
                    <path d="M11.1102396,24.1518 C11.1102396,24.1518 7.28703961,27.3114 10.4724396,31.5852 C14.3388396,27.9162 11.1102396,24.1518 11.1102396,24.1518 Z" id="Path"></path>
                    <path d="M7.40523961,26.5146 C7.40523961,26.5146 3.06543961,28.9158 5.40903961,33.7026 C9.88503961,30.8094 7.40523961,26.5146 7.40523961,26.5146 Z" id="Path"></path>
                    <path d="M3.65643961,28.7298 C3.65643961,28.7298 -1.08296039,30.1908 0.22983961,35.3568 C5.20383961,33.4428 3.65643961,28.7298 3.65643961,28.7298 Z" id="Path"></path>
                </g>
                <g id="Left-Side" opacity="0.5" transform="translate(18.000000, 23.500000) rotate(-345.000000) translate(-18.000000, -23.500000) translate(5.000000, 3.000000)">
                    <path d="M9.86201566,5.86197757e-14 C9.86201566,5.86197757e-14 5.11601566,1.4436 6.41021566,6.6144 C11.3914157,4.719 9.86201566,5.86197757e-14 9.86201566,5.86197757e-14 Z" id="Path"></path>
                    <path d="M4.67681566,11.2644 C5.96921566,6.0936 1.22261566,4.6512 1.22261566,4.6512 C1.22261566,4.6512 -0.304984344,9.3708 4.67681566,11.2644 Z" id="Path"></path>
                    <path d="M4.46381566,17.5842 C4.95341566,12.2772 0.0430156564,11.5734 0.0430156564,11.5734 C0.0430156564,11.5734 -0.748984344,16.4706 4.46381566,17.5842 Z" id="Path"></path>
                    <path d="M6.26801566,23.2836 C5.19401566,18.063 0.291415656,18.8178 0.291415656,18.8178 C0.291415656,18.8178 0.956815656,23.7336 6.26801566,23.2836 Z" id="Path"></path>
                    <path d="M9.56861566,28.83 C7.13801566,24.087 2.61521566,26.1246 2.61521566,26.1246 C2.61521566,26.1246 4.57001566,30.684 9.56861566,28.83 Z" id="Path"></path>
                    <path d="M7.08161566,32.3232 C7.08161566,32.3232 10.4428157,35.9724 14.5390157,32.5608 C10.6678157,28.8972 7.08161566,32.3232 7.08161566,32.3232 Z" id="Path"></path>
                    <path d="M19.9396157,35.5422 C15.4264157,32.7078 12.5806157,36.771 12.5806157,36.771 C12.5806157,36.771 16.5922157,39.69 19.9396157,35.5422 Z" id="Path"></path>
                    <path d="M18.1342157,39.741 C18.1342157,39.741 22.7806157,41.481 24.8962157,36.588 C19.7896157,35.0646 18.1342157,39.741 18.1342157,39.741 Z" id="Path"></path>
                    <path d="M11.0200157,5.8554 C11.0200157,5.8554 6.06101566,5.9934 5.94221566,11.322 C11.2468157,10.8108 11.0200157,5.8554 11.0200157,5.8554 Z" id="Path"></path>
                    <path d="M10.0756157,11.2182 C10.0756157,11.2182 5.21921566,12.231 6.04481566,17.4966 C11.1760157,16.0542 10.0756157,11.2182 10.0756157,11.2182 Z" id="Path"></path>
                    <path d="M10.4446157,15.9786 C10.4446157,15.9786 5.89481566,17.955 7.77041566,22.944 C12.5032157,20.4912 10.4446157,15.9786 10.4446157,15.9786 Z" id="Path"></path>
                    <path d="M10.9324157,27.9858 C14.9572157,24.4914 11.8978157,20.5878 11.8978157,20.5878 C11.8978157,20.5878 7.93901566,23.5758 10.9324157,27.9858 Z" id="Path"></path>
                    <path d="M14.4016157,24.1524 C14.4016157,24.1524 11.1730157,27.9174 15.0394157,31.5858 C18.2248157,27.312 14.4016157,24.1524 14.4016157,24.1524 Z" id="Path"></path>
                    <path d="M20.1028157,33.7032 C22.4464157,28.9158 18.1066157,26.5152 18.1066157,26.5152 C18.1066157,26.5152 15.6268157,30.81 20.1028157,33.7032 Z" id="Path"></path>
                    <path d="M21.8554157,28.7304 C21.8554157,28.7304 20.3080157,33.4428 25.2820157,35.3574 C26.5948157,30.1914 21.8554157,28.7304 21.8554157,28.7304 Z" id="Path"></path>
                </g>
            </g>
        </g>
    </g>
</svg>