<?xml version="1.0" encoding="utf-8"?>
<!-- Generator: Adobe Illustrator 18.0.0, SVG Export Plug-In . SVG Version: 6.00 Build 0)  -->
<!DOCTYPE svg PUBLIC "-//W3C//DTD SVG 1.1//EN" "http://www.w3.org/Graphics/SVG/1.1/DTD/svg11.dtd">
<svg version="1.1" id="Layer_1" xmlns="http://www.w3.org/2000/svg" xmlns:xlink="http://www.w3.org/1999/xlink" x="0px" y="0px"
	 viewBox="0 0 166 54" enable-background="new 0 0 166 54" xml:space="preserve">
<title>Download</title>
<desc>Created with Sketch.</desc>
<g id="Path">
	<path fill="#FFFFFF" d="M11.1,53.8c-0.4,0-0.8,0-1.3,0c-0.9,0-1.8-0.1-2.6-0.2c-0.8-0.1-1.6-0.4-2.3-0.8c-0.7-0.4-1.4-0.8-2-1.4
		c-0.6-0.6-1.1-1.2-1.4-2c-0.4-0.7-0.6-1.5-0.8-2.3c-0.1-0.9-0.2-1.7-0.2-2.6c0-0.3,0-1.3,0-1.3V10.8c0,0,0-1,0-1.3
		c0-0.9,0.1-1.8,0.2-2.6c0.1-0.8,0.4-1.6,0.8-2.3c0.4-0.7,0.8-1.4,1.4-2c0.6-0.6,1.2-1.1,2-1.4c0.7-0.4,1.5-0.6,2.3-0.8
		C8,0.3,8.9,0.3,9.8,0.2l1.3,0h143.9l1.3,0c0.9,0,1.7,0.1,2.6,0.2c0.8,0.1,1.6,0.4,2.3,0.8c1.5,0.7,2.6,1.9,3.4,3.4
		c0.4,0.7,0.6,1.5,0.7,2.3c0.1,0.9,0.2,1.8,0.2,2.6c0,0.4,0,0.8,0,1.2c0,0.5,0,1,0,1.5v29.3c0,0.5,0,1,0,1.5c0,0.5,0,0.9,0,1.3
		c0,0.9-0.1,1.7-0.2,2.6c-0.1,0.8-0.4,1.6-0.8,2.3c-0.4,0.7-0.8,1.4-1.4,1.9c-0.6,0.6-1.2,1.1-2,1.4c-0.7,0.4-1.5,0.6-2.3,0.8
		c-0.9,0.1-1.7,0.2-2.6,0.2c-0.4,0-0.8,0-1.3,0l-1.5,0L11.1,53.8z"/>
</g>
<g id="PLAY">
	<defs>
		<path id="SVGID_1_" d="M44.3,22.9l-6.1-3.5c0,0-11.1-6.4-11.7-6.8c-0.7-0.4-1.3-0.1-1.3,0.6c0,1.3,0,13.6,0,13.6s0,13.3,0,13.9
			c0,0.6,0.5,0.8,1,0.5c0.6-0.3,12-6.9,12-6.9l6.1-3.5c0,0,5.2-3,5.8-3.4c0.7-0.4,0.6-0.9,0-1.2C49.6,26,44.3,22.9,44.3,22.9z"/>
	</defs>
	<clipPath id="SVGID_2_">
		<use xlink:href="#SVGID_1_"  overflow="visible"/>
	</clipPath>
	<linearGradient id="SVGID_3_" gradientUnits="userSpaceOnUse" x1="32.6974" y1="12.0202" x2="32.6974" y2="41.8573">
		<stop  offset="0" style="stop-color:#257DB0"/>
		<stop  offset="0.208" style="stop-color:#3C90B3"/>
		<stop  offset="0.7416" style="stop-color:#73BDB9"/>
		<stop  offset="1" style="stop-color:#89CEBC"/>
	</linearGradient>
	<polygon clip-path="url(#SVGID_2_)" fill="url(#SVGID_3_)" points="25.2,12 25.2,26.9 25.2,41.9 40.2,26.9 	"/>
	<linearGradient id="SVGID_4_" gradientUnits="userSpaceOnUse" x1="25.1746" y1="19.4253" x2="44.2612" y2="19.4253">
		<stop  offset="0" style="stop-color:#51BFAC"/>
		<stop  offset="1" style="stop-color:#DEE899"/>
	</linearGradient>
	<polygon clip-path="url(#SVGID_2_)" fill="url(#SVGID_4_)" points="44.3,22.9 38.2,19.4 25.2,11.9 25.2,12 40.2,26.9 	"/>
	<linearGradient id="SVGID_5_" gradientUnits="userSpaceOnUse" x1="34.7178" y1="26.939" x2="34.7178" y2="41.9655">
		<stop  offset="0" style="stop-color:#EB403D"/>
		<stop  offset="0.1937" style="stop-color:#D64252"/>
		<stop  offset="0.7369" style="stop-color:#9F4887"/>
		<stop  offset="1" style="stop-color:#894A9C"/>
	</linearGradient>
	<polygon clip-path="url(#SVGID_2_)" fill="url(#SVGID_5_)" points="25.2,41.9 25.2,42 38.2,34.5 44.3,30.9 40.2,26.9 	"/>
	<linearGradient id="SVGID_6_" gradientUnits="userSpaceOnUse" x1="45.7109" y1="22.9318" x2="45.7109" y2="30.9456">
		<stop  offset="0" style="stop-color:#F48779"/>
		<stop  offset="0.6121" style="stop-color:#FAB076"/>
		<stop  offset="1" style="stop-color:#FDC674"/>
	</linearGradient>
	<polygon clip-path="url(#SVGID_2_)" fill="url(#SVGID_6_)" points="44.3,22.9 40.2,26.9 44.3,30.9 51.2,26.9 	"/>
</g>
<g>
	<g>
		<path d="M63.8,19.3V13h2c0.6,0,1.2,0.1,1.7,0.4c0.5,0.2,0.9,0.6,1.1,1c0.3,0.5,0.4,1,0.4,1.6v0.4c0,0.6-0.1,1.1-0.4,1.6
			c-0.3,0.5-0.6,0.8-1.1,1c-0.5,0.2-1.1,0.4-1.7,0.4H63.8z M64.7,13.6v5h1c0.7,0,1.3-0.2,1.7-0.6c0.4-0.4,0.6-1,0.6-1.7v-0.4
			c0-0.7-0.2-1.3-0.6-1.7c-0.4-0.4-0.9-0.6-1.6-0.6H64.7z"/>
		<path d="M70,16.9c0-0.5,0.1-0.9,0.3-1.2c0.2-0.4,0.5-0.7,0.9-0.9c0.4-0.2,0.8-0.3,1.3-0.3c0.7,0,1.3,0.2,1.8,0.7
			c0.5,0.4,0.7,1,0.7,1.8V17c0,0.5-0.1,0.9-0.3,1.2c-0.2,0.4-0.5,0.6-0.9,0.9c-0.4,0.2-0.8,0.3-1.3,0.3c-0.7,0-1.3-0.2-1.8-0.7
			C70.3,18.3,70,17.7,70,16.9L70,16.9z M71,17c0,0.5,0.1,0.9,0.4,1.3c0.3,0.3,0.6,0.5,1.1,0.5c0.5,0,0.8-0.2,1.1-0.5
			c0.3-0.3,0.4-0.8,0.4-1.3c0-0.5-0.1-0.9-0.4-1.3c-0.3-0.3-0.6-0.5-1.1-0.5c-0.5,0-0.8,0.2-1.1,0.5C71.1,15.9,71,16.4,71,17z"/>
		<path d="M80.8,18.2l1-3.6h0.9l-1.6,4.7h-0.7l-1.3-3.6l-1.3,3.6h-0.7l-1.6-4.7h0.9l1.1,3.5l1.2-3.5h0.7L80.8,18.2z"/>
		<path d="M84.5,14.6l0,0.6c0.4-0.5,0.9-0.7,1.6-0.7c1.1,0,1.7,0.6,1.7,1.7v3.1H87v-3.1c0-0.3-0.1-0.6-0.3-0.8
			c-0.2-0.2-0.4-0.2-0.8-0.2c-0.3,0-0.6,0.1-0.8,0.2c-0.2,0.1-0.4,0.3-0.5,0.5v3.4h-0.9v-4.7H84.5z"/>
		<path d="M90.3,19.3h-0.9v-6.7h0.9V19.3z"/>
		<path d="M91.5,16.9c0-0.5,0.1-0.9,0.3-1.2c0.2-0.4,0.5-0.7,0.9-0.9c0.4-0.2,0.8-0.3,1.3-0.3c0.7,0,1.3,0.2,1.8,0.7
			c0.4,0.4,0.7,1,0.7,1.8V17c0,0.5-0.1,0.9-0.3,1.2c-0.2,0.4-0.5,0.6-0.9,0.9c-0.4,0.2-0.8,0.3-1.3,0.3c-0.7,0-1.3-0.2-1.8-0.7
			C91.7,18.3,91.5,17.7,91.5,16.9L91.5,16.9z M92.4,17c0,0.5,0.1,0.9,0.4,1.3c0.3,0.3,0.6,0.5,1.1,0.5c0.5,0,0.8-0.2,1.1-0.5
			c0.3-0.3,0.4-0.8,0.4-1.3c0-0.5-0.1-0.9-0.4-1.3c-0.3-0.3-0.6-0.5-1.1-0.5c-0.5,0-0.8,0.2-1.1,0.5C92.5,15.9,92.4,16.4,92.4,17z"
			/>
		<path d="M100.8,19.3c-0.1-0.1-0.1-0.3-0.1-0.5c-0.4,0.4-0.9,0.6-1.5,0.6c-0.5,0-1-0.1-1.3-0.4c-0.3-0.3-0.5-0.6-0.5-1
			c0-0.5,0.2-0.9,0.6-1.1c0.4-0.3,1-0.4,1.8-0.4h0.9v-0.4c0-0.3-0.1-0.5-0.3-0.7c-0.2-0.2-0.5-0.3-0.8-0.3c-0.3,0-0.6,0.1-0.8,0.2
			c-0.2,0.1-0.3,0.3-0.3,0.5h-0.9c0-0.2,0.1-0.5,0.3-0.7c0.2-0.2,0.4-0.4,0.8-0.5c0.3-0.1,0.7-0.2,1.1-0.2c0.6,0,1.1,0.1,1.4,0.4
			c0.3,0.3,0.5,0.6,0.5,1.1v2.2c0,0.4,0.1,0.8,0.2,1v0.1H100.8z M99.3,18.7c0.3,0,0.6-0.1,0.8-0.2c0.3-0.1,0.4-0.3,0.6-0.5v-1h-0.7
			c-1.1,0-1.7,0.3-1.7,0.9c0,0.3,0.1,0.5,0.3,0.6S99,18.7,99.3,18.7z"/>
		<path d="M102.8,16.9c0-0.7,0.2-1.3,0.6-1.7c0.4-0.4,0.9-0.7,1.5-0.7c0.6,0,1.1,0.2,1.5,0.6v-2.5h0.9v6.7h-0.8l0-0.5
			c-0.4,0.4-0.9,0.6-1.5,0.6c-0.6,0-1.1-0.2-1.5-0.7C103,18.3,102.8,17.7,102.8,16.9L102.8,16.9z M103.7,17c0,0.5,0.1,1,0.4,1.3
			c0.3,0.3,0.6,0.5,1,0.5c0.6,0,1-0.2,1.3-0.7v-2.2c-0.3-0.4-0.7-0.7-1.3-0.7c-0.4,0-0.8,0.2-1,0.5C103.8,15.9,103.7,16.4,103.7,17z
			"/>
		<path d="M111,16.9c0-0.5,0.1-0.9,0.3-1.2c0.2-0.4,0.5-0.7,0.9-0.9c0.4-0.2,0.8-0.3,1.3-0.3c0.7,0,1.3,0.2,1.8,0.7
			c0.4,0.4,0.7,1,0.7,1.8V17c0,0.5-0.1,0.9-0.3,1.2c-0.2,0.4-0.5,0.6-0.9,0.9c-0.4,0.2-0.8,0.3-1.3,0.3c-0.7,0-1.3-0.2-1.8-0.7
			C111.2,18.3,111,17.7,111,16.9L111,16.9z M111.9,17c0,0.5,0.1,0.9,0.4,1.3c0.3,0.3,0.6,0.5,1.1,0.5c0.5,0,0.8-0.2,1.1-0.5
			c0.3-0.3,0.4-0.8,0.4-1.3c0-0.5-0.1-0.9-0.4-1.3c-0.3-0.3-0.6-0.5-1.1-0.5c-0.5,0-0.8,0.2-1.1,0.5C112,15.9,111.9,16.4,111.9,17z"
			/>
		<path d="M117.9,14.6l0,0.6c0.4-0.5,0.9-0.7,1.6-0.7c1.1,0,1.7,0.6,1.7,1.7v3.1h-0.9v-3.1c0-0.3-0.1-0.6-0.3-0.8
			c-0.2-0.2-0.4-0.2-0.8-0.2c-0.3,0-0.6,0.1-0.8,0.2c-0.2,0.1-0.4,0.3-0.5,0.5v3.4H117v-4.7H117.9z"/>
		<path d="M126.3,13.4v1.1h1v0.6h-1v2.9c0,0.2,0,0.3,0.1,0.4c0.1,0.1,0.2,0.1,0.5,0.1c0.1,0,0.3,0,0.4-0.1v0.7
			c-0.2,0.1-0.5,0.1-0.7,0.1c-0.4,0-0.7-0.1-0.9-0.3c-0.2-0.2-0.3-0.5-0.3-0.9v-2.9h-1v-0.6h1v-1.1H126.3z"/>
		<path d="M129.3,15.2c0.4-0.4,0.9-0.7,1.6-0.7c1.1,0,1.7,0.6,1.7,1.7v3.1h-0.9v-3.1c0-0.3-0.1-0.6-0.3-0.8
			c-0.2-0.2-0.4-0.2-0.8-0.2c-0.3,0-0.6,0.1-0.8,0.2c-0.2,0.1-0.4,0.3-0.5,0.5v3.4h-0.9v-6.7h0.9V15.2z"/>
		<path d="M136.2,19.4c-0.7,0-1.3-0.2-1.8-0.6c-0.5-0.4-0.7-1-0.7-1.7v-0.1c0-0.5,0.1-0.9,0.3-1.3c0.2-0.4,0.5-0.7,0.8-0.9
			c0.4-0.2,0.8-0.3,1.2-0.3c0.7,0,1.2,0.2,1.6,0.6c0.4,0.4,0.6,1,0.6,1.7v0.3h-3.6c0,0.5,0.2,0.8,0.5,1.1c0.3,0.3,0.7,0.4,1.1,0.4
			c0.3,0,0.6-0.1,0.8-0.2c0.2-0.1,0.4-0.3,0.6-0.5l0.6,0.4C137.8,19.1,137.1,19.4,136.2,19.4z M136.1,15.2c-0.4,0-0.7,0.1-0.9,0.4
			c-0.3,0.2-0.4,0.6-0.5,1h2.7v-0.1c0-0.4-0.2-0.7-0.4-1C136.8,15.3,136.5,15.2,136.1,15.2z"/>
	</g>
</g>
<g>
	<path d="M66.5,33.5v4.2H64V25.7h4.7c0.9,0,1.7,0.2,2.4,0.5c0.7,0.3,1.2,0.8,1.6,1.4c0.4,0.6,0.6,1.3,0.6,2.1c0,1.2-0.4,2.1-1.2,2.8
		c-0.8,0.7-1.9,1-3.4,1H66.5z M66.5,31.5h2.2c0.7,0,1.2-0.2,1.5-0.5c0.3-0.3,0.5-0.8,0.5-1.3c0-0.6-0.2-1.1-0.5-1.4
		c-0.3-0.4-0.8-0.6-1.4-0.6h-2.3V31.5z"/>
	<path d="M77.3,37.7h-2.4V25h2.4V37.7z"/>
	<path d="M84.5,37.7c-0.1-0.2-0.2-0.5-0.2-0.8c-0.6,0.6-1.3,1-2.3,1c-0.9,0-1.6-0.3-2.2-0.8C79.2,36.6,79,36,79,35.2
		c0-0.9,0.4-1.7,1.1-2.2c0.7-0.5,1.7-0.8,3.1-0.8h1.1v-0.5c0-0.4-0.1-0.7-0.3-1c-0.2-0.2-0.5-0.4-1-0.4c-0.4,0-0.7,0.1-0.9,0.3
		c-0.2,0.2-0.3,0.5-0.3,0.8h-2.4c0-0.5,0.2-1,0.5-1.4c0.3-0.4,0.8-0.8,1.4-1c0.6-0.3,1.2-0.4,2-0.4c1.1,0,2,0.3,2.6,0.8
		c0.6,0.6,1,1.3,1,2.3v3.9c0,0.8,0.1,1.5,0.4,1.9v0.1H84.5z M82.5,36.1c0.4,0,0.7-0.1,1-0.2c0.3-0.2,0.5-0.4,0.7-0.6v-1.5h-0.9
		c-1.2,0-1.8,0.4-1.9,1.2l0,0.1c0,0.3,0.1,0.5,0.3,0.7C81.9,36,82.2,36.1,82.5,36.1z"/>
	<path d="M91.6,34.4l1.7-5.6h2.6l-3.6,10.3L92,39.6c-0.5,1.2-1.4,1.8-2.6,1.8c-0.3,0-0.7-0.1-1.1-0.2v-1.8l0.4,0
		c0.5,0,0.8-0.1,1-0.2c0.2-0.1,0.4-0.4,0.5-0.7l0.3-0.7l-3.1-9H90L91.6,34.4z"/>
	<path d="M107.4,34.6c0-0.5-0.2-0.8-0.5-1.1c-0.3-0.3-0.9-0.5-1.8-0.8c-0.9-0.3-1.5-0.6-2-0.8c-1.4-0.7-2.1-1.7-2.1-3
		c0-0.7,0.2-1.2,0.6-1.7c0.4-0.5,0.9-0.9,1.6-1.2c0.7-0.3,1.5-0.4,2.3-0.4c0.9,0,1.6,0.2,2.3,0.5c0.7,0.3,1.2,0.8,1.6,1.3
		c0.4,0.6,0.6,1.2,0.6,1.9h-2.5c0-0.6-0.2-1-0.5-1.3c-0.3-0.3-0.8-0.5-1.5-0.5c-0.6,0-1.1,0.1-1.4,0.4c-0.3,0.3-0.5,0.6-0.5,1
		c0,0.4,0.2,0.7,0.6,1c0.4,0.3,1,0.5,1.7,0.7c1.4,0.4,2.4,1,3.1,1.6c0.6,0.6,1,1.4,1,2.4c0,1-0.4,1.9-1.2,2.5
		c-0.8,0.6-1.9,0.9-3.2,0.9c-0.9,0-1.8-0.2-2.5-0.5c-0.8-0.3-1.3-0.8-1.7-1.4s-0.6-1.3-0.6-2.1h2.5c0,1.3,0.8,2,2.4,2
		c0.6,0,1.1-0.1,1.4-0.4C107.3,35.3,107.4,35,107.4,34.6z"/>
	<path d="M114.3,26.6v2.2h1.5v1.8h-1.5V35c0,0.3,0.1,0.6,0.2,0.7c0.1,0.1,0.4,0.2,0.7,0.2c0.3,0,0.5,0,0.7-0.1v1.8
		c-0.5,0.1-1,0.2-1.4,0.2c-1.7,0-2.5-0.8-2.6-2.5v-4.8h-1.3v-1.8h1.3v-2.2H114.3z"/>
	<path d="M116.5,33.2c0-0.9,0.2-1.7,0.5-2.4s0.8-1.2,1.5-1.6c0.6-0.4,1.4-0.6,2.2-0.6c1.2,0,2.2,0.4,3,1.1c0.8,0.7,1.2,1.7,1.3,3
		l0,0.6c0,1.4-0.4,2.5-1.2,3.3c-0.8,0.8-1.8,1.2-3.1,1.2s-2.3-0.4-3.1-1.2c-0.8-0.8-1.2-2-1.2-3.4V33.2z M118.9,33.3
		c0,0.9,0.2,1.5,0.5,2c0.3,0.5,0.8,0.7,1.4,0.7c0.6,0,1-0.2,1.4-0.7c0.3-0.4,0.5-1.2,0.5-2.1c0-0.8-0.2-1.5-0.5-1.9
		c-0.3-0.5-0.8-0.7-1.4-0.7c-0.6,0-1,0.2-1.4,0.7C119.1,31.7,118.9,32.4,118.9,33.3z"/>
	<path d="M131.5,31c-0.3,0-0.6-0.1-0.9-0.1c-0.9,0-1.5,0.3-1.8,0.9v5.9h-2.4v-9h2.3l0.1,1.1c0.5-0.8,1.1-1.2,2-1.2
		c0.3,0,0.5,0,0.7,0.1L131.5,31z"/>
	<path d="M136.6,37.9c-1.3,0-2.4-0.4-3.2-1.2c-0.8-0.8-1.2-1.9-1.2-3.2v-0.2c0-0.9,0.2-1.7,0.5-2.4c0.3-0.7,0.8-1.3,1.5-1.6
		c0.6-0.4,1.4-0.6,2.2-0.6c1.2,0,2.2,0.4,2.9,1.2c0.7,0.8,1.1,1.9,1.1,3.3v1h-5.7c0.1,0.6,0.3,1.1,0.7,1.4c0.4,0.4,0.9,0.5,1.5,0.5
		c0.9,0,1.6-0.3,2.2-1l1.2,1.3c-0.4,0.5-0.8,0.9-1.5,1.2C138.1,37.8,137.4,37.9,136.6,37.9z M136.4,30.5c-0.5,0-0.9,0.2-1.2,0.5
		c-0.3,0.3-0.5,0.8-0.6,1.4h3.3v-0.2c0-0.5-0.2-0.9-0.4-1.2C137.3,30.7,136.9,30.5,136.4,30.5z"/>
</g>
</svg>
