<?xml version="1.0" encoding="UTF-8"?>
<svg width="24px" height="24px" viewBox="0 0 24 24" version="1.1" xmlns="http://www.w3.org/2000/svg" xmlns:xlink="http://www.w3.org/1999/xlink">
    <!-- Generator: Sketch 57.1 (83088) - https://sketch.com -->
    <title>Shape</title>
    <desc>Created with Sketch.</desc>
    <g id="Website" stroke="none" stroke-width="1" fill="none" fill-rule="evenodd" opacity="0.699999988">
        <g id="Home-Page" transform="translate(-870.000000, -559.000000)" fill="#FFFFFF" fill-rule="nonzero">
            <g id="Top-Section" transform="translate(285.000000, 60.000000)">
                <g id="Text" transform="translate(394.000000, 158.000000)">
                    <g id="Video-Button" transform="translate(176.000000, 326.000000)">
                        <path d="M27,39 C33.6270968,39 39,33.6274839 39,27 C39,20.3729032 33.6274839,15 27,15 C20.3729032,15 15,20.3725161 15,27 C15,33.6270968 20.3725161,39 27,39 M27,37.8387097 C21.0139355,37.8387097 16.1612903,32.9860645 16.1612903,27 C16.1612903,21.0139355 21.0139355,16.1612903 27,16.1612903 C32.9860645,16.1612903 37.8387097,21.0139355 37.8387097,27 C37.8387097,32.9860645 32.9860645,37.8387097 27,37.8387097 M24.3901935,32.8103226 C23.8459355,33.1501935 23.4050323,32.9036129 23.4050323,32.2633548 L23.4050323,21.8663226 C23.4050323,21.224129 23.8490323,20.9810323 24.3901935,21.3193548 L32.5966452,26.4491613 C33.1409032,26.7890323 33.1378065,27.3421935 32.5966452,27.6805161 L24.3901935,32.8103226" id="Shape"></path>
                    </g>
                </g>
            </g>
        </g>
    </g>
</svg>