<?xml version="1.0" encoding="utf-8"?>
<!-- Generator: Adobe Illustrator 18.0.0, SVG Export Plug-In . SVG Version: 6.00 Build 0)  -->
<!DOCTYPE svg PUBLIC "-//W3C//DTD SVG 1.1//EN" "http://www.w3.org/Graphics/SVG/1.1/DTD/svg11.dtd">
<svg version="1.1" id="Layer_1" xmlns="http://www.w3.org/2000/svg" xmlns:xlink="http://www.w3.org/1999/xlink" x="0px" y="0px"
	 viewBox="46.2 -246.6 278.4 44.3" enable-background="new 46.2 -246.6 278.4 44.3" xml:space="preserve">
<title>PH badge</title>
<desc>Created with Sketch.</desc>
<path id="Path" opacity="0.1" fill="#FFFFFF" enable-background="new    " d="M68.3-202.4c12.2,0,22.1-9.9,22.1-22.1
	c0-12.2-9.9-22.1-22.1-22.1s-22.1,9.9-22.1,22.1C46.2-212.3,56.1-202.4,68.3-202.4z"/>
<g>
	<path fill="#1ED688" d="M55.7-224.5c0,4.2,2.1,7.9,5.3,10.2c0.6,0.4,0.6,1.2,0.1,1.6l0,0c-0.4,0.3-0.9,0.3-1.2,0
		c-3.7-2.6-6.2-7-6.2-11.9c0-8,6.6-14.5,14.6-14.5v2.1C61.4-236.9,55.7-231.3,55.7-224.5z"/>
	<path fill="#1AB975" d="M68.6-240.8l3.8,2.6c0.2,0.1,0.2,0.4,0,0.6l-3.8,2.6c-0.2,0.2-0.5,0-0.5-0.3v-5.2
		C68-240.8,68.3-241,68.6-240.8z"/>
	<path fill="#1ED688" d="M80.9-224.5c0-4.2-2.1-7.9-5.3-10.2c-0.6-0.4-0.6-1.2-0.1-1.6l0,0c0.4-0.3,0.9-0.3,1.2,0
		c3.7,2.6,6.2,7,6.2,11.9c0,8-6.6,14.5-14.6,14.5v-2.1C75.2-212.2,80.9-217.7,80.9-224.5z"/>
	<path fill="#1AB975" d="M68-208.2l-3.8-2.6c-0.2-0.1-0.2-0.4,0-0.6l3.8-2.6c0.2-0.2,0.5,0,0.5,0.3v5.2
		C68.6-208.2,68.2-208,68-208.2z"/>
	<path fill="#1ED688" d="M74.8-226.1l-6.2,5.2l-1.6,1.3c-0.4,0.3-0.8,0.5-1.3,0.5c-0.1,0-0.2,0-0.2,0c-0.6-0.1-1.1-0.4-1.4-0.8
		l-2.4-3.2c-0.5-0.7-0.4-1.8,0.3-2.3c0.7-0.5,1.8-0.4,2.3,0.3l1.6,2.2l0,0l6.8-5.6c0.7-0.6,1.7-0.5,2.3,0.2
		C75.6-227.7,75.5-226.7,74.8-226.1z"/>
	<path fill="#35E298" d="M74.8-226.1l-6.2,5.2c-1-0.5-1.9-1.2-2.7-2.1l6.8-5.6c0.7-0.6,1.7-0.5,2.3,0.2
		C75.6-227.7,75.5-226.7,74.8-226.1z"/>
</g>
<g>
	<path fill="#FFFFFF" d="M108.1-231.4c0.8,0.5,1.9,0.9,3.1,0.9c1.8,0,2.8-0.9,2.8-2.3c0-1.3-0.7-2-2.5-2.7c-2.2-0.8-3.6-1.9-3.6-3.8
		c0-2.1,1.7-3.7,4.4-3.7c1.4,0,2.4,0.3,3,0.7l-0.5,1.4c-0.4-0.2-1.3-0.6-2.6-0.6c-1.8,0-2.5,1.1-2.5,2c0,1.3,0.8,1.9,2.7,2.6
		c2.3,0.9,3.4,2,3.4,4c0,2.1-1.5,3.9-4.7,3.9c-1.3,0-2.7-0.4-3.4-0.9L108.1-231.4z"/>
	<path fill="#FFFFFF" d="M120.2-241.7v2.8h2.5v1.3h-2.5v5.2c0,1.2,0.3,1.9,1.3,1.9c0.5,0,0.8-0.1,1-0.1l0.1,1.3
		c-0.3,0.1-0.9,0.2-1.6,0.2c-0.8,0-1.5-0.3-1.9-0.7c-0.5-0.5-0.7-1.4-0.7-2.5v-5.3h-1.5v-1.3h1.5v-2.3L120.2-241.7z"/>
	<path fill="#FFFFFF" d="M133.3-234.2c0,3.6-2.5,5.1-4.8,5.1c-2.6,0-4.6-1.9-4.6-5c0-3.2,2.1-5.1,4.8-5.1
		C131.4-239.2,133.3-237.1,133.3-234.2z M125.6-234.1c0,2.1,1.2,3.7,2.9,3.7c1.7,0,2.9-1.6,2.9-3.8c0-1.6-0.8-3.7-2.9-3.7
		C126.5-237.8,125.6-235.9,125.6-234.1z"/>
	<path fill="#FFFFFF" d="M135.5-235.9c0-1.1,0-2.1-0.1-3h1.5l0.1,1.9h0.1c0.4-1.3,1.5-2.1,2.7-2.1c0.2,0,0.3,0,0.5,0.1v1.7
		c-0.2,0-0.4-0.1-0.6-0.1c-1.2,0-2.1,0.9-2.4,2.3c0,0.2-0.1,0.5-0.1,0.8v5.2h-1.7V-235.9z"/>
	<path fill="#FFFFFF" d="M143.2-238.9l2.1,5.7c0.2,0.6,0.5,1.4,0.6,2h0c0.2-0.6,0.4-1.3,0.6-2l1.9-5.7h1.9l-2.6,6.9
		c-1.3,3.3-2.1,5-3.3,6.1c-0.9,0.8-1.7,1.1-2.2,1.1l-0.4-1.5c0.4-0.1,1-0.4,1.5-0.9c0.5-0.4,1.1-1.1,1.5-2c0.1-0.2,0.1-0.3,0.1-0.4
		c0-0.1,0-0.2-0.1-0.5l-3.6-8.9H143.2z"/>
	<path fill="#FFFFFF" d="M156.3-242.7h1.7v12h5.8v1.5h-7.5V-242.7z"/>
	<path fill="#FFFFFF" d="M167.6-241.7c0,0.6-0.4,1.1-1.1,1.1c-0.6,0-1.1-0.5-1.1-1.1c0-0.6,0.5-1.1,1.1-1.1
		C167.2-242.8,167.6-242.3,167.6-241.7z M165.7-229.3v-9.7h1.8v9.7H165.7z"/>
	<path fill="#FFFFFF" d="M170.1-231.1c0.5,0.3,1.4,0.7,2.3,0.7c1.3,0,1.9-0.6,1.9-1.4c0-0.8-0.5-1.3-1.8-1.8
		c-1.7-0.6-2.6-1.6-2.6-2.7c0-1.6,1.3-2.8,3.3-2.8c1,0,1.8,0.3,2.4,0.6l-0.4,1.3c-0.4-0.2-1.1-0.6-2-0.6c-1,0-1.6,0.6-1.6,1.3
		c0,0.8,0.6,1.2,1.8,1.6c1.7,0.6,2.5,1.5,2.5,2.9c0,1.7-1.3,2.9-3.6,2.9c-1.1,0-2-0.3-2.7-0.7L170.1-231.1z"/>
	<path fill="#FFFFFF" d="M180.4-241.7v2.8h2.5v1.3h-2.5v5.2c0,1.2,0.3,1.9,1.3,1.9c0.5,0,0.8-0.1,1-0.1l0.1,1.3
		c-0.3,0.1-0.9,0.2-1.6,0.2c-0.8,0-1.5-0.3-1.9-0.7c-0.5-0.5-0.7-1.4-0.7-2.5v-5.3h-1.5v-1.3h1.5v-2.3L180.4-241.7z"/>
</g>
<g>
	<path fill="#FFFFFF" d="M111.9-211h-1.3l-0.6,3.4h-1.7l0.6-3.4H107v-1.5h2.1l0.4-2.2h-1.8v-1.5h2.1l0.6-3.5h1.6l-0.6,3.5h1.3
		l0.6-3.5h1.7l-0.6,3.5h1.9v1.5h-2.2l-0.4,2.2h1.9v1.5h-2.1l-0.6,3.4h-1.7L111.9-211z M110.8-212.5h1.3l0.4-2.2h-1.3L110.8-212.5z"
		/>
	<path fill="#FFFFFF" d="M124.4-209.9h-4l-0.7,2.3h-3.1l4.4-12.1h2.7l4.5,12.1h-3.1L124.4-209.9z M121.1-212.1h2.6l-1.3-4.2
		L121.1-212.1z"/>
	<path fill="#FFFFFF" d="M132-207.6h-2.8v-12.8h2.8V-207.6z"/>
	<path fill="#FFFFFF" d="M141.5-211.3l0.9-5.3h2.7l-2.1,9h-2.4l-1.5-5.3l-1.5,5.3h-2.4l-2.1-9h2.7l0.9,5.4l1.4-5.4h2L141.5-211.3z"
		/>
	<path fill="#FFFFFF" d="M151.1-207.6c-0.1-0.2-0.2-0.5-0.3-0.8c-0.5,0.6-1.2,1-2.2,1c-0.8,0-1.6-0.3-2.2-0.8
		c-0.6-0.5-0.9-1.2-0.9-1.9c0-1,0.4-1.7,1.1-2.2s1.8-0.7,3.1-0.7h0.9v-0.5c0-0.8-0.4-1.2-1.1-1.2c-0.7,0-1,0.3-1,1h-2.8
		c0-0.9,0.4-1.6,1.1-2.1s1.7-0.8,2.8-0.8s2.1,0.3,2.7,0.8s1,1.3,1,2.3v4c0,0.8,0.1,1.5,0.4,1.9v0.1H151.1z M149.3-209.4
		c0.3,0,0.6-0.1,0.9-0.2c0.2-0.1,0.4-0.3,0.5-0.5v-1.4h-0.8c-1,0-1.5,0.4-1.5,1.3c0,0.3,0.1,0.5,0.3,0.6
		C148.9-209.5,149.1-209.4,149.3-209.4z"/>
	<path fill="#FFFFFF" d="M158.5-211.5l1.5-5.1h3l-3.7,10.5l-0.2,0.4c-0.5,1.2-1.4,1.7-2.8,1.7c-0.4,0-0.8-0.1-1.2-0.2v-2h0.4
		c0.4,0,0.7-0.1,0.9-0.2c0.2-0.1,0.4-0.3,0.5-0.6l0.2-0.6l-3.1-9.1h3L158.5-211.5z"/>
	<path fill="#FFFFFF" d="M168.4-210.1c0-0.2-0.1-0.4-0.4-0.6s-0.7-0.3-1.4-0.4s-1.3-0.4-1.7-0.6c-0.5-0.3-0.8-0.6-1-0.9
		s-0.4-0.8-0.4-1.2c0-0.8,0.3-1.5,1-2c0.7-0.5,1.6-0.8,2.7-0.8c1.2,0,2.1,0.3,2.9,0.8s1.1,1.2,1.1,2.1h-2.8c0-0.7-0.4-1.1-1.1-1.1
		c-0.3,0-0.5,0.1-0.7,0.2c-0.2,0.2-0.3,0.4-0.3,0.6c0,0.2,0.1,0.5,0.4,0.6s0.6,0.3,1.2,0.4c0.5,0.1,1,0.2,1.4,0.4
		c1.4,0.5,2,1.3,2,2.5c0,0.8-0.4,1.5-1.1,2s-1.7,0.8-2.8,0.8c-0.8,0-1.5-0.1-2.1-0.4s-1.1-0.7-1.4-1.1s-0.5-1-0.5-1.5h2.6
		c0,0.4,0.1,0.7,0.4,0.9c0.3,0.2,0.6,0.3,1,0.3c0.4,0,0.7-0.1,0.9-0.2C168.4-209.7,168.4-209.9,168.4-210.1z"/>
	<path fill="#FFFFFF" d="M176.4-212.2c0-0.9,0.1-1.7,0.4-2.4s0.7-1.2,1.3-1.6c0.6-0.4,1.2-0.6,2-0.6c0.9,0,1.7,0.3,2.2,0.9l0.1-0.8
		h2.5v8.6c0,0.8-0.2,1.5-0.6,2.1c-0.4,0.6-0.9,1-1.6,1.3c-0.7,0.3-1.5,0.5-2.4,0.5c-0.7,0-1.3-0.1-1.9-0.4c-0.6-0.2-1.1-0.6-1.4-1
		l1.2-1.6c0.5,0.6,1.2,0.9,2.1,0.9c1.2,0,1.9-0.6,1.9-1.9v-0.3c-0.5,0.6-1.2,0.9-2,0.9c-1.1,0-2-0.4-2.7-1.3
		C176.7-209.5,176.4-210.7,176.4-212.2L176.4-212.2z M179.2-212c0,0.7,0.1,1.3,0.4,1.7c0.3,0.4,0.7,0.6,1.2,0.6c0.6,0,1-0.2,1.3-0.6
		v-3.8c-0.3-0.4-0.7-0.6-1.3-0.6c-0.5,0-0.9,0.2-1.2,0.7C179.3-213.5,179.2-212.8,179.2-212z"/>
	<path fill="#FFFFFF" d="M190.8-207.4c-1.4,0-2.5-0.4-3.3-1.2c-0.9-0.8-1.3-1.9-1.3-3.2v-0.2c0-0.9,0.2-1.7,0.5-2.4s0.8-1.2,1.5-1.6
		c0.7-0.4,1.4-0.6,2.3-0.6c1.3,0,2.3,0.4,3,1.2c0.7,0.8,1.1,1.9,1.1,3.3v1.1H189c0.1,0.5,0.3,0.9,0.7,1.2s0.8,0.4,1.3,0.4
		c0.9,0,1.6-0.3,2.1-0.9l1.3,1.5c-0.3,0.5-0.8,0.9-1.5,1.1C192.2-207.6,191.5-207.4,190.8-207.4z M190.5-214.6
		c-0.8,0-1.3,0.5-1.5,1.6h2.8v-0.2c0-0.4-0.1-0.8-0.3-1C191.3-214.5,190.9-214.6,190.5-214.6z"/>
	<path fill="#FFFFFF" d="M199-218.8v2.2h1.5v1.9H199v4.1c0,0.3,0.1,0.6,0.2,0.7c0.1,0.1,0.4,0.2,0.7,0.2c0.3,0,0.5,0,0.7,0v2
		c-0.5,0.2-1,0.2-1.6,0.2c-1,0-1.7-0.2-2.1-0.7c-0.5-0.5-0.7-1.1-0.7-2.1v-4.5H195v-1.9h1.1v-2.2H199z"/>
	<path fill="#FFFFFF" d="M211.1-208.6c-0.6,0.8-1.4,1.1-2.4,1.1c-1,0-1.7-0.3-2.2-0.9c-0.5-0.6-0.8-1.4-0.8-2.5v-5.8h2.8v5.8
		c0,0.8,0.4,1.2,1.1,1.2c0.6,0,1.1-0.2,1.4-0.7v-6.3h2.8v9h-2.6L211.1-208.6z"/>
	<path fill="#FFFFFF" d="M223.7-212c0,1.4-0.3,2.5-0.9,3.3c-0.6,0.8-1.5,1.2-2.5,1.2c-0.8,0-1.5-0.3-2-0.9v4.2h-2.8v-12.4h2.6
		l0.1,0.8c0.5-0.7,1.2-1,2.1-1c1.1,0,2,0.4,2.6,1.2c0.6,0.8,0.9,1.9,0.9,3.4V-212z M220.9-212.2c0-1.6-0.5-2.4-1.4-2.4
		c-0.7,0-1.1,0.2-1.3,0.7v3.5c0.2,0.5,0.7,0.7,1.3,0.7c0.9,0,1.3-0.8,1.4-2.3V-212.2z"/>
	<path fill="#FFFFFF" d="M224.6-212.2c0-1.4,0.3-2.5,0.9-3.4c0.6-0.8,1.5-1.2,2.6-1.2c0.8,0,1.5,0.3,2,0.9v-4.5h2.8v12.8h-2.5
		l-0.1-1c-0.6,0.8-1.3,1.1-2.2,1.1c-1.1,0-1.9-0.4-2.5-1.2C224.9-209.5,224.6-210.7,224.6-212.2z M227.4-212c0,1.6,0.5,2.4,1.4,2.4
		c0.6,0,1.1-0.3,1.3-0.8v-3.4c-0.3-0.5-0.7-0.8-1.3-0.8c-0.9,0-1.3,0.7-1.4,2.1L227.4-212z"/>
	<path fill="#FFFFFF" d="M239.6-207.6c-0.1-0.2-0.2-0.5-0.3-0.8c-0.5,0.6-1.2,1-2.2,1c-0.8,0-1.6-0.3-2.2-0.8
		c-0.6-0.5-0.9-1.2-0.9-1.9c0-1,0.4-1.7,1.1-2.2s1.8-0.7,3.1-0.7h0.9v-0.5c0-0.8-0.4-1.2-1.1-1.2c-0.7,0-1,0.3-1,1h-2.8
		c0-0.9,0.4-1.6,1.1-2.1c0.7-0.5,1.7-0.8,2.8-0.8c1.1,0,2.1,0.3,2.7,0.8s1,1.3,1,2.3v4c0,0.8,0.1,1.5,0.4,1.9v0.1H239.6z
		 M237.8-209.4c0.3,0,0.6-0.1,0.9-0.2c0.2-0.1,0.4-0.3,0.5-0.5v-1.4h-0.8c-1,0-1.5,0.4-1.5,1.3c0,0.3,0.1,0.5,0.3,0.6
		C237.3-209.5,237.6-209.4,237.8-209.4z"/>
	<path fill="#FFFFFF" d="M246.8-218.8v2.2h1.5v1.9h-1.5v4.1c0,0.3,0.1,0.6,0.2,0.7s0.4,0.2,0.7,0.2c0.3,0,0.5,0,0.7,0v2
		c-0.5,0.2-1,0.2-1.6,0.2c-1,0-1.7-0.2-2.1-0.7s-0.7-1.1-0.7-2.1v-4.5h-1.1v-1.9h1.1v-2.2H246.8z"/>
	<path fill="#FFFFFF" d="M253.7-207.4c-1.4,0-2.5-0.4-3.3-1.2c-0.9-0.8-1.3-1.9-1.3-3.2v-0.2c0-0.9,0.2-1.7,0.5-2.4
		c0.3-0.7,0.8-1.2,1.5-1.6c0.7-0.4,1.4-0.6,2.3-0.6c1.3,0,2.3,0.4,3,1.2c0.7,0.8,1.1,1.9,1.1,3.3v1.1h-5.6c0.1,0.5,0.3,0.9,0.7,1.2
		c0.3,0.3,0.8,0.4,1.3,0.4c0.9,0,1.6-0.3,2.1-0.9l1.3,1.5c-0.3,0.5-0.8,0.9-1.5,1.1C255.1-207.6,254.4-207.4,253.7-207.4z
		 M253.4-214.6c-0.8,0-1.3,0.5-1.5,1.6h2.8v-0.2c0-0.4-0.1-0.8-0.3-1C254.2-214.5,253.8-214.6,253.4-214.6z"/>
	<path fill="#FFFFFF" d="M258.3-212.2c0-1.4,0.3-2.5,0.9-3.4c0.6-0.8,1.5-1.2,2.6-1.2c0.8,0,1.5,0.3,2,0.9v-4.5h2.8v12.8h-2.5
		l-0.1-1c-0.6,0.8-1.3,1.1-2.2,1.1c-1.1,0-1.9-0.4-2.5-1.2S258.3-210.7,258.3-212.2z M261.1-212c0,1.6,0.5,2.4,1.4,2.4
		c0.6,0,1.1-0.3,1.3-0.8v-3.4c-0.3-0.5-0.7-0.8-1.3-0.8c-0.9,0-1.3,0.7-1.4,2.1L261.1-212z"/>
	<path fill="#FFFFFF" d="M277.1-210.1c0-0.2-0.1-0.4-0.4-0.6c-0.3-0.1-0.7-0.3-1.4-0.4s-1.3-0.4-1.7-0.6c-0.5-0.3-0.8-0.6-1-0.9
		s-0.4-0.8-0.4-1.2c0-0.8,0.3-1.5,1-2c0.7-0.5,1.6-0.8,2.7-0.8c1.2,0,2.1,0.3,2.9,0.8c0.7,0.5,1.1,1.2,1.1,2.1H277
		c0-0.7-0.4-1.1-1.1-1.1c-0.3,0-0.5,0.1-0.7,0.2c-0.2,0.2-0.3,0.4-0.3,0.6c0,0.2,0.1,0.5,0.4,0.6c0.2,0.2,0.6,0.3,1.2,0.4
		c0.5,0.1,1,0.2,1.4,0.4c1.4,0.5,2,1.3,2,2.5c0,0.8-0.4,1.5-1.1,2c-0.7,0.5-1.7,0.8-2.8,0.8c-0.8,0-1.5-0.1-2.1-0.4
		s-1.1-0.7-1.4-1.1s-0.5-1-0.5-1.5h2.6c0,0.4,0.2,0.7,0.4,0.9c0.3,0.2,0.6,0.3,1,0.3c0.4,0,0.7-0.1,0.9-0.2
		C277-209.7,277.1-209.9,277.1-210.1z"/>
	<path fill="#FFFFFF" d="M284.4-218.8v2.2h1.5v1.9h-1.5v4.1c0,0.3,0.1,0.6,0.2,0.7c0.1,0.1,0.4,0.2,0.7,0.2c0.3,0,0.5,0,0.7,0v2
		c-0.5,0.2-1,0.2-1.6,0.2c-1,0-1.7-0.2-2.1-0.7c-0.5-0.5-0.7-1.1-0.7-2.1v-4.5h-1.1v-1.9h1.1v-2.2H284.4z"/>
	<path fill="#FFFFFF" d="M286.4-212.2c0-0.9,0.2-1.7,0.5-2.4c0.3-0.7,0.8-1.2,1.5-1.6c0.7-0.4,1.4-0.6,2.3-0.6
		c1.3,0,2.4,0.4,3.2,1.2c0.8,0.8,1.2,2,1.2,3.4v0.1c0,1.4-0.4,2.5-1.2,3.3c-0.8,0.8-1.8,1.2-3.2,1.2c-1.3,0-2.3-0.4-3.1-1.1
		c-0.8-0.8-1.2-1.8-1.3-3.1L286.4-212.2z M289.2-212c0,0.8,0.1,1.4,0.4,1.8s0.6,0.6,1.2,0.6c1,0,1.5-0.8,1.5-2.3v-0.3
		c0-1.6-0.5-2.4-1.5-2.4c-0.9,0-1.4,0.7-1.5,2.1L289.2-212z"/>
	<path fill="#FFFFFF" d="M301.7-214.1l-0.9-0.1c-0.9,0-1.4,0.3-1.7,0.8v5.7h-2.8v-9h2.6l0.1,1.2c0.5-0.9,1.1-1.3,2-1.3
		c0.3,0,0.6,0,0.8,0.1L301.7-214.1z"/>
	<path fill="#FFFFFF" d="M302.7-218.9c0-0.4,0.1-0.7,0.4-1c0.3-0.3,0.7-0.4,1.1-0.4c0.5,0,0.8,0.1,1.1,0.4c0.3,0.3,0.4,0.6,0.4,1
		s-0.1,0.7-0.4,1c-0.3,0.3-0.7,0.4-1.1,0.4c-0.5,0-0.8-0.1-1.1-0.4C302.8-218.2,302.7-218.5,302.7-218.9z M305.7-207.6h-2.8v-9h2.8
		V-207.6z"/>
	<path fill="#FFFFFF" d="M311.7-207.4c-1.4,0-2.5-0.4-3.3-1.2c-0.9-0.8-1.3-1.9-1.3-3.2v-0.2c0-0.9,0.2-1.7,0.5-2.4
		c0.3-0.7,0.8-1.2,1.5-1.6c0.7-0.4,1.4-0.6,2.3-0.6c1.3,0,2.3,0.4,3,1.2c0.7,0.8,1.1,1.9,1.1,3.3v1.1h-5.6c0.1,0.5,0.3,0.9,0.7,1.2
		c0.3,0.3,0.8,0.4,1.3,0.4c0.9,0,1.6-0.3,2.1-0.9l1.3,1.5c-0.3,0.5-0.8,0.9-1.5,1.1C313.1-207.6,312.5-207.4,311.7-207.4z
		 M311.4-214.6c-0.8,0-1.3,0.5-1.5,1.6h2.8v-0.2c0-0.4-0.1-0.8-0.3-1C312.2-214.5,311.8-214.6,311.4-214.6z"/>
	<path fill="#FFFFFF" d="M321.3-210.1c0-0.2-0.1-0.4-0.4-0.6c-0.3-0.1-0.7-0.3-1.4-0.4s-1.3-0.4-1.7-0.6c-0.5-0.3-0.8-0.6-1-0.9
		s-0.4-0.8-0.4-1.2c0-0.8,0.3-1.5,1-2c0.7-0.5,1.6-0.8,2.7-0.8c1.2,0,2.1,0.3,2.9,0.8c0.7,0.5,1.1,1.2,1.1,2.1h-2.8
		c0-0.7-0.4-1.1-1.1-1.1c-0.3,0-0.5,0.1-0.7,0.2c-0.2,0.2-0.3,0.4-0.3,0.6c0,0.2,0.1,0.5,0.4,0.6c0.2,0.2,0.6,0.3,1.2,0.4
		c0.5,0.1,1,0.2,1.4,0.4c1.4,0.5,2,1.3,2,2.5c0,0.8-0.4,1.5-1.1,2c-0.7,0.5-1.7,0.8-2.8,0.8c-0.8,0-1.5-0.1-2.1-0.4
		s-1.1-0.7-1.4-1.1s-0.5-1-0.5-1.5h2.6c0,0.4,0.2,0.7,0.4,0.9c0.3,0.2,0.6,0.3,1,0.3c0.4,0,0.7-0.1,0.9-0.2
		C321.2-209.7,321.3-209.9,321.3-210.1z"/>
</g>
</svg>
